<svg id="svg" version="1.1" xmlns="http://www.w3.org/2000/svg" xmlns:xlink="http://www.w3.org/1999/xlink" width="400" height="350.37593984962405" viewBox="0, 0, 400,350.37593984962405"><g id="svgg"><path id="path0" d="M380.894 106.953 C 380.316 107.129,378.817 107.450,377.564 107.667 C 376.310 107.884,375.127 108.180,374.934 108.323 C 374.741 108.467,373.992 108.776,373.269 109.009 C 372.546 109.242,371.954 109.565,371.954 109.728 C 371.954 109.890,371.442 110.126,370.815 110.252 C 370.188 110.379,369.202 110.690,368.624 110.945 C 368.046 111.200,366.862 111.522,365.995 111.660 C 365.127 111.798,364.248 112.047,364.042 112.212 C 363.836 112.378,362.575 112.767,361.241 113.076 C 359.906 113.386,358.653 113.773,358.456 113.936 C 358.259 114.100,357.311 114.413,356.349 114.632 C 352.008 115.621,351.384 115.776,350.394 116.118 C 349.816 116.318,348.701 116.776,347.917 117.136 C 347.133 117.497,346.108 117.797,345.639 117.803 C 345.169 117.810,344.154 118.120,343.383 118.493 C 342.612 118.865,341.702 119.175,341.361 119.182 C 341.020 119.188,339.612 119.588,338.232 120.070 C 336.852 120.552,335.388 120.947,334.978 120.947 C 334.568 120.947,334.080 121.100,333.892 121.287 C 333.705 121.475,332.511 121.775,331.240 121.955 C 329.968 122.135,328.430 122.540,327.823 122.854 C 327.216 123.168,325.342 123.552,323.658 123.708 C 321.974 123.864,320.123 124.231,319.544 124.523 C 318.966 124.816,317.842 125.155,317.048 125.277 C 316.253 125.398,314.912 125.811,314.068 126.194 C 313.224 126.577,312.170 126.894,311.727 126.899 C 311.284 126.903,310.268 127.222,309.470 127.607 C 308.672 127.993,307.851 128.309,307.647 128.311 C 307.442 128.312,306.865 128.526,306.365 128.787 C 305.865 129.048,304.840 129.371,304.087 129.505 C 303.333 129.638,301.928 130.047,300.964 130.414 C 300.000 130.780,297.791 131.496,296.056 132.006 C 293.075 132.881,288.674 134.785,288.325 135.351 C 288.237 135.493,287.498 135.722,286.684 135.860 C 285.870 135.997,284.885 136.318,284.495 136.573 C 284.105 136.829,283.107 137.146,282.276 137.278 C 281.446 137.411,280.190 137.813,279.485 138.172 C 278.781 138.532,277.759 138.826,277.214 138.826 C 276.670 138.826,275.875 139.051,275.448 139.326 C 275.021 139.601,273.702 140.000,272.516 140.211 C 271.331 140.423,269.894 140.830,269.322 141.115 C 268.750 141.400,267.590 141.782,266.744 141.964 C 262.226 142.937,260.170 143.508,259.002 144.113 C 258.288 144.483,257.342 144.789,256.898 144.793 C 256.454 144.797,255.455 145.090,254.677 145.443 C 253.900 145.796,252.493 146.201,251.551 146.342 C 250.610 146.483,249.511 146.806,249.109 147.061 C 248.707 147.315,247.669 147.635,246.801 147.773 C 245.933 147.911,244.829 148.222,244.347 148.465 C 243.865 148.708,242.642 149.082,241.630 149.296 C 240.618 149.511,238.848 150.003,237.697 150.391 C 236.546 150.778,235.199 151.096,234.703 151.096 C 234.208 151.096,233.184 151.411,232.428 151.797 C 229.858 153.107,227.753 152.513,227.464 150.394 C 227.189 148.380,223.838 149.189,219.905 152.220 C 218.705 153.144,217.569 153.900,217.381 153.900 C 217.192 153.900,216.904 154.138,216.742 154.428 C 216.043 155.676,210.526 156.648,208.160 155.939 C 207.092 155.618,206.621 155.618,206.109 155.939 C 204.957 156.658,203.039 156.445,202.087 155.494 C 200.630 154.036,201.236 151.804,203.093 151.792 C 207.764 151.763,205.496 149.146,199.776 147.965 C 198.248 147.650,197.479 147.242,196.386 146.171 C 195.167 144.977,194.756 144.785,193.414 144.785 C 192.463 144.785,191.530 144.541,191.020 144.158 C 187.990 141.887,157.318 140.446,153.982 142.420 C 152.123 143.519,149.441 143.002,148.779 141.417 C 148.337 140.361,148.132 140.228,146.951 140.228 C 145.359 140.228,144.524 139.662,144.372 138.478 C 144.235 137.419,142.693 137.097,137.248 136.991 C 132.262 136.894,131.744 137.197,131.288 140.477 C 130.865 143.529,130.515 143.990,129.132 143.325 C 128.171 142.863,128.133 142.749,128.133 140.322 C 128.133 137.216,127.627 136.529,125.410 136.621 C 123.550 136.698,122.185 136.183,121.508 135.149 C 121.219 134.709,120.225 133.990,119.300 133.552 C 118.374 133.114,117.300 132.376,116.913 131.912 C 116.088 130.923,113.729 130.473,112.583 131.086 C 110.345 132.284,112.400 137.020,114.736 136.046 C 118.385 134.524,121.458 137.127,117.976 138.791 C 116.960 139.277,116.953 139.298,117.693 139.628 C 118.592 140.029,118.751 140.383,119.026 142.590 C 119.272 144.567,117.836 146.538,116.149 146.538 C 115.080 146.538,112.500 145.843,112.025 145.427 C 111.841 145.267,111.445 145.136,111.143 145.136 C 110.841 145.136,110.006 144.820,109.286 144.435 C 105.852 142.594,101.685 143.828,101.003 146.889 C 100.500 149.144,99.869 149.438,95.285 149.552 C 90.875 149.662,89.557 150.053,89.232 151.349 C 88.657 153.638,86.716 155.078,83.786 155.386 C 82.933 155.475,82.907 155.560,82.808 158.577 L 82.706 161.676 86.138 165.413 C 91.202 170.926,90.678 170.641,96.341 170.950 C 100.902 171.199,101.315 171.369,101.315 173.006 C 101.315 175.040,101.154 175.069,91.333 174.803 L 82.432 174.563 81.568 175.494 C 80.345 176.814,76.802 177.067,73.795 176.050 C 71.877 175.402,70.951 175.347,63.278 175.430 C 54.490 175.526,53.177 175.727,52.761 177.038 C 52.502 177.853,51.291 178.440,49.868 178.440 C 49.363 178.440,48.581 178.786,48.130 179.210 C 47.403 179.893,46.906 179.984,43.726 180.017 C 39.975 180.056,36.950 180.676,35.332 181.736 C 34.800 182.085,33.410 182.443,32.177 182.547 C 29.687 182.758,28.245 183.744,27.860 185.500 C 27.739 186.051,27.365 186.700,27.030 186.941 C 26.695 187.182,26.121 187.892,25.755 188.519 C 25.389 189.146,24.775 189.759,24.390 189.881 C 23.076 190.298,21.733 192.011,21.424 193.666 C 21.260 194.543,20.933 195.493,20.697 195.777 C 20.069 196.534,19.545 201.304,19.969 202.417 L 20.316 203.330 24.804 203.330 C 30.848 203.330,31.017 203.444,30.724 207.325 C 30.491 210.410,30.871 211.370,32.535 211.898 C 32.958 212.032,33.313 212.250,33.325 212.381 C 33.336 212.513,33.382 213.804,33.427 215.250 C 33.479 216.920,33.727 218.288,34.107 219.001 C 34.437 219.618,34.709 220.565,34.711 221.104 C 34.719 222.792,35.111 223.664,35.957 223.876 C 36.874 224.106,37.632 225.111,37.993 226.574 C 38.135 227.150,38.702 227.835,39.363 228.228 C 39.983 228.597,40.931 229.457,41.470 230.138 C 42.008 230.819,42.674 231.376,42.949 231.376 C 43.225 231.376,43.873 232.269,44.389 233.361 C 45.270 235.222,47.354 237.686,48.048 237.686 C 48.351 237.686,50.131 241.143,50.131 241.731 C 50.131 241.894,50.763 242.617,51.535 243.337 L 52.939 244.645 64.068 244.855 C 70.189 244.970,78.668 245.201,82.910 245.369 C 97.214 245.935,102.149 246.092,114.162 246.359 C 125.007 246.601,126.199 246.686,126.835 247.261 C 127.690 248.037,192.921 247.959,196.670 247.179 C 197.730 246.958,202.538 246.690,207.353 246.584 C 212.756 246.465,216.381 246.241,216.819 246.001 C 217.321 245.725,227.177 245.571,250.482 245.474 L 283.436 245.338 284.663 244.372 C 285.337 243.841,286.481 243.211,287.205 242.973 C 287.928 242.735,288.961 242.098,289.501 241.558 C 290.040 241.019,290.947 240.473,291.516 240.345 C 292.163 240.199,292.916 239.597,293.526 238.739 C 294.063 237.984,295.166 236.920,295.978 236.375 C 296.789 235.830,297.510 235.074,297.580 234.695 C 297.734 233.854,298.645 232.778,299.202 232.778 C 299.899 232.778,301.840 230.824,301.846 230.118 C 301.854 229.137,302.242 228.710,303.377 228.432 C 304.521 228.151,305.554 227.104,306.103 225.667 C 306.319 225.100,307.028 224.408,307.792 224.018 C 308.707 223.552,309.335 222.866,309.846 221.779 C 310.292 220.830,310.898 220.116,311.383 219.969 C 312.608 219.597,313.698 218.435,313.959 217.222 C 314.089 216.619,314.415 215.696,314.683 215.170 C 315.208 214.144,314.487 213.643,312.834 213.886 C 311.669 214.057,310.671 213.490,310.309 212.452 C 309.857 211.155,310.283 210.777,312.364 210.629 L 313.935 210.517 313.935 208.999 C 313.935 207.399,314.658 206.486,315.924 206.486 C 316.322 206.486,316.629 206.134,316.766 205.521 C 316.884 204.991,317.054 204.284,317.144 203.950 C 317.235 203.616,318.007 202.842,318.859 202.229 C 320.662 200.935,321.048 199.720,320.481 197.117 C 320.281 196.196,320.034 194.717,319.932 193.830 C 319.718 191.964,318.764 190.095,317.879 189.809 C 317.542 189.700,317.266 189.480,317.266 189.321 C 317.266 188.806,313.807 187.204,312.694 187.204 C 312.101 187.204,310.087 186.904,308.218 186.536 C 306.349 186.168,303.164 185.597,301.139 185.266 C 299.115 184.935,296.748 184.535,295.881 184.377 C 295.013 184.220,293.391 184.081,292.276 184.070 C 291.162 184.058,289.347 183.748,288.245 183.381 C 287.142 183.013,284.387 182.546,282.123 182.342 C 279.858 182.139,277.728 181.825,277.390 181.646 C 277.052 181.466,275.197 181.213,273.269 181.084 C 271.341 180.954,268.369 180.620,266.665 180.340 C 264.961 180.060,260.187 179.730,256.057 179.606 C 248.101 179.366,247.997 179.341,247.796 177.570 C 247.609 175.924,245.582 175.602,234.190 175.410 C 221.977 175.204,221.027 174.881,224.659 172.171 C 225.689 171.403,226.715 170.538,226.938 170.249 C 227.623 169.362,230.099 169.429,233.357 170.422 C 237.866 171.797,241.927 171.365,244.252 169.263 C 245.067 168.526,245.965 167.923,246.248 167.923 C 247.873 167.923,248.730 166.343,248.281 164.172 C 247.238 159.122,247.920 154.952,249.790 154.952 C 250.084 154.952,251.227 154.624,252.331 154.224 C 254.110 153.579,256.281 152.962,260.994 151.761 C 261.762 151.566,262.634 151.186,262.931 150.917 C 263.228 150.648,264.177 150.323,265.040 150.194 C 265.902 150.066,266.940 149.755,267.346 149.502 C 267.751 149.250,268.698 148.932,269.449 148.795 C 270.200 148.659,271.241 148.332,271.762 148.069 C 272.282 147.805,273.517 147.416,274.506 147.204 C 275.494 146.992,276.725 146.599,277.240 146.330 C 277.755 146.061,278.458 145.840,278.801 145.839 C 279.144 145.838,280.362 145.443,281.507 144.961 C 282.653 144.479,283.890 144.084,284.257 144.084 C 284.624 144.084,285.670 143.754,286.581 143.351 C 287.492 142.948,289.366 142.495,290.744 142.344 C 293.524 142.040,297.591 141.117,299.213 140.422 C 299.792 140.174,300.817 139.859,301.491 139.722 C 302.165 139.586,303.386 139.170,304.203 138.799 C 305.020 138.428,306.011 138.124,306.405 138.124 C 306.799 138.124,307.629 137.913,308.250 137.654 C 308.870 137.395,310.245 136.987,311.306 136.747 C 312.366 136.506,313.735 136.085,314.347 135.811 C 314.960 135.536,316.301 135.153,317.327 134.960 C 321.012 134.265,324.093 132.926,325.944 131.214 C 326.196 130.981,326.989 130.698,327.706 130.585 C 328.423 130.472,329.483 130.151,330.061 129.871 C 330.640 129.591,331.665 129.271,332.340 129.159 C 333.015 129.047,334.435 128.663,335.495 128.306 C 336.556 127.950,338.843 127.237,340.578 126.723 C 342.314 126.209,344.473 125.488,345.376 125.120 C 346.280 124.753,347.388 124.452,347.840 124.452 C 348.291 124.452,348.972 124.236,349.352 123.972 C 349.733 123.707,350.836 123.322,351.804 123.116 C 352.772 122.910,354.034 122.496,354.608 122.197 C 355.183 121.897,356.050 121.651,356.535 121.650 C 357.019 121.649,358.005 121.332,358.724 120.947 C 359.444 120.561,360.388 120.238,360.823 120.230 C 361.257 120.222,362.244 119.977,363.015 119.686 C 363.786 119.395,366.547 118.542,369.150 117.791 C 371.753 117.041,374.514 116.188,375.285 115.897 C 376.056 115.606,377.023 115.361,377.433 115.353 C 377.843 115.344,378.362 115.117,378.585 114.848 C 378.808 114.579,379.577 114.260,380.293 114.138 C 382.721 113.727,384.877 112.527,385.003 111.517 C 385.193 109.991,384.581 108.194,383.588 107.364 C 382.559 106.503,382.436 106.484,380.894 106.953 " stroke="none" fill="#f9f9f9" fill-rule="evenodd"></path><path id="path1" d="M56.442 0.351 C 56.442 0.562,54.981 0.701,52.761 0.701 C 50.540 0.701,49.080 0.840,49.080 1.052 C 49.080 1.245,48.843 1.402,48.554 1.402 C 48.265 1.402,48.028 1.560,48.028 1.753 C 48.028 1.946,47.277 2.103,46.358 2.103 C 44.963 2.103,44.632 2.233,44.343 2.892 C 44.051 3.558,43.681 3.697,41.981 3.786 C 40.252 3.876,39.965 3.989,39.965 4.575 C 39.965 5.148,39.718 5.259,38.442 5.259 C 37.364 5.259,36.733 5.463,36.284 5.960 C 35.935 6.345,35.279 6.661,34.827 6.661 C 34.184 6.661,34.005 6.852,34.005 7.537 C 34.005 8.342,33.877 8.414,32.428 8.414 C 31.115 8.414,30.850 8.525,30.850 9.076 C 30.850 9.551,30.514 9.801,29.657 9.962 C 29.001 10.085,28.375 10.418,28.266 10.702 C 28.157 10.986,27.668 11.218,27.180 11.218 C 26.537 11.218,26.293 11.405,26.293 11.896 C 26.293 12.268,25.977 12.673,25.592 12.796 C 25.206 12.918,24.890 13.323,24.890 13.696 C 24.890 14.265,24.638 14.373,23.313 14.373 C 21.969 14.373,21.735 14.477,21.735 15.074 C 21.735 15.977,20.535 17.178,19.632 17.178 C 19.118 17.178,18.931 17.412,18.931 18.054 C 18.931 18.755,18.755 18.931,18.054 18.931 C 17.412 18.931,17.178 19.118,17.178 19.632 C 17.178 20.099,16.944 20.333,16.477 20.333 C 15.999 20.333,15.776 20.567,15.776 21.067 C 15.776 21.506,15.494 21.875,15.074 21.984 C 14.686 22.086,14.373 22.462,14.373 22.828 C 14.373 23.239,14.126 23.488,13.717 23.488 C 13.222 23.488,13.005 23.834,12.836 24.890 C 12.662 25.981,12.457 26.293,11.915 26.293 C 11.452 26.293,11.218 26.528,11.218 26.994 C 11.218 27.461,10.985 27.695,10.517 27.695 C 9.920 27.695,9.816 27.929,9.816 29.273 C 9.816 30.616,9.712 30.850,9.115 30.850 C 8.656 30.850,8.414 31.084,8.414 31.527 C 8.414 31.962,8.132 32.244,7.625 32.316 C 6.969 32.409,6.818 32.679,6.728 33.918 C 6.641 35.122,6.490 35.408,5.940 35.408 C 5.348 35.408,5.259 35.660,5.259 37.333 C 5.259 38.878,5.120 39.344,4.557 39.696 C 4.062 40.005,3.856 40.513,3.856 41.427 C 3.856 42.502,3.723 42.740,3.067 42.833 C 2.361 42.933,2.268 43.169,2.175 45.099 C 2.089 46.893,1.957 47.283,1.387 47.433 C 0.770 47.594,0.701 47.931,0.701 50.800 C 0.701 52.691,0.559 53.988,0.351 53.988 C 0.118 53.988,0.000 94.712,0.000 175.460 C 0.000 256.208,0.118 296.933,0.351 296.933 C 0.558 296.933,0.701 298.218,0.701 300.088 C 0.701 303.009,0.753 303.243,1.402 303.243 C 2.026 303.243,2.103 303.476,2.103 305.354 C 2.103 307.265,2.186 307.502,2.980 307.864 C 3.769 308.224,3.856 308.467,3.856 310.310 C 3.856 312.124,3.936 312.358,4.557 312.358 C 5.142 312.358,5.259 312.591,5.259 313.760 C 5.259 314.928,5.375 315.162,5.960 315.162 C 6.557 315.162,6.661 315.396,6.661 316.740 C 6.661 318.189,6.732 318.317,7.537 318.317 C 8.180 318.317,8.414 318.504,8.414 319.018 C 8.414 319.486,8.647 319.720,9.115 319.720 C 9.712 319.720,9.816 319.953,9.816 321.297 C 9.816 322.641,9.920 322.875,10.517 322.875 C 10.985 322.875,11.218 323.108,11.218 323.576 C 11.218 324.036,11.452 324.277,11.898 324.277 C 12.431 324.277,12.602 324.562,12.687 325.592 C 12.774 326.648,12.951 326.928,13.585 327.018 C 14.155 327.099,14.373 327.366,14.373 327.982 C 14.373 328.601,14.566 328.834,15.074 328.834 C 15.542 328.834,15.776 329.068,15.776 329.535 C 15.776 330.003,16.009 330.237,16.477 330.237 C 16.944 330.237,17.178 330.470,17.178 330.938 C 17.178 331.452,17.412 331.639,18.054 331.639 C 18.755 331.639,18.931 331.814,18.931 332.515 C 18.931 333.158,19.118 333.392,19.632 333.392 C 20.099 333.392,20.333 333.625,20.333 334.093 C 20.333 334.560,20.567 334.794,21.034 334.794 C 21.502 334.794,21.735 335.028,21.735 335.495 C 21.735 335.960,21.969 336.196,22.430 336.196 C 22.878 336.196,23.202 336.507,23.344 337.073 C 23.532 337.820,23.766 337.949,24.928 337.949 C 26.059 337.949,26.293 338.069,26.293 338.650 C 26.293 339.118,26.526 339.351,26.994 339.351 C 27.461 339.351,27.695 339.585,27.695 340.053 C 27.695 340.650,27.929 340.754,29.273 340.754 C 30.616 340.754,30.850 340.858,30.850 341.455 C 30.850 341.922,31.084 342.156,31.551 342.156 C 32.065 342.156,32.252 342.390,32.252 343.032 C 32.252 343.877,32.334 343.909,34.531 343.909 C 36.576 343.909,36.810 343.981,36.810 344.610 C 36.810 345.077,37.044 345.311,37.511 345.311 C 37.978 345.311,38.212 345.545,38.212 346.012 C 38.212 346.661,38.446 346.713,41.367 346.713 C 44.499 346.713,44.522 346.720,44.522 347.590 C 44.522 348.135,44.721 348.466,45.048 348.466 C 45.337 348.466,45.890 348.782,46.275 349.167 C 46.931 349.823,47.444 349.869,54.163 349.869 C 58.720 349.869,61.350 349.997,61.350 350.219 C 61.350 350.452,107.800 350.570,200.000 350.570 C 292.200 350.570,338.650 350.452,338.650 350.219 C 338.650 349.997,341.221 349.869,345.662 349.869 C 352.439 349.869,352.673 349.845,352.673 349.167 C 352.673 348.583,352.907 348.466,354.075 348.466 C 355.337 348.466,355.478 348.379,355.478 347.590 C 355.478 346.720,355.501 346.713,358.633 346.713 C 361.554 346.713,361.788 346.661,361.788 346.012 C 361.788 345.545,362.022 345.311,362.489 345.311 C 362.956 345.311,363.190 345.077,363.190 344.610 C 363.190 343.981,363.424 343.909,365.469 343.909 C 367.666 343.909,367.748 343.877,367.748 343.032 C 367.748 342.390,367.935 342.156,368.449 342.156 C 368.916 342.156,369.150 341.922,369.150 341.455 C 369.150 340.858,369.384 340.754,370.727 340.754 C 372.071 340.754,372.305 340.650,372.305 340.053 C 372.305 339.585,372.539 339.351,373.006 339.351 C 373.467 339.351,373.707 339.118,373.707 338.670 C 373.707 338.120,373.993 337.969,375.197 337.882 C 376.436 337.792,376.706 337.641,376.799 336.985 C 376.871 336.478,377.153 336.196,377.588 336.196 C 378.031 336.196,378.265 335.954,378.265 335.495 C 378.265 335.028,378.498 334.794,378.966 334.794 C 379.433 334.794,379.667 334.560,379.667 334.093 C 379.667 333.625,379.901 333.392,380.368 333.392 C 380.882 333.392,381.069 333.158,381.069 332.515 C 381.069 331.814,381.245 331.639,381.946 331.639 C 382.588 331.639,382.822 331.452,382.822 330.938 C 382.822 330.470,383.056 330.237,383.523 330.237 C 383.991 330.237,384.224 330.003,384.224 329.535 C 384.224 329.068,384.458 328.834,384.926 328.834 C 385.523 328.834,385.627 328.601,385.627 327.257 C 385.627 325.808,385.698 325.679,386.503 325.679 C 387.146 325.679,387.379 325.492,387.379 324.978 C 387.379 324.511,387.613 324.277,388.081 324.277 C 388.559 324.277,388.782 324.043,388.782 323.543 C 388.782 323.104,389.063 322.735,389.483 322.626 C 389.871 322.524,390.184 322.147,390.184 321.782 C 390.184 321.356,390.432 321.122,390.885 321.122 C 391.514 321.122,391.586 320.888,391.586 318.843 C 391.586 316.646,391.618 316.564,392.463 316.564 C 393.105 316.564,393.339 316.377,393.339 315.863 C 393.339 315.396,393.573 315.162,394.040 315.162 C 394.670 315.162,394.741 314.928,394.741 312.883 C 394.741 310.838,394.813 310.605,395.443 310.605 C 395.957 310.605,396.144 310.371,396.144 309.728 C 396.144 309.177,396.342 308.852,396.678 308.852 C 397.481 308.852,397.897 307.351,397.897 304.447 C 397.897 302.074,397.959 301.840,398.598 301.840 C 399.214 301.840,399.299 301.607,399.299 299.912 C 399.299 298.852,399.457 297.984,399.649 297.984 C 399.882 297.984,400.000 256.968,400.000 175.635 C 400.000 94.303,399.882 53.287,399.649 53.287 C 399.457 53.287,399.299 52.590,399.299 51.738 C 399.299 49.867,399.032 49.080,398.399 49.080 C 398.043 49.080,397.898 48.308,397.823 46.012 C 397.728 43.134,397.673 42.938,396.933 42.833 C 396.267 42.738,396.144 42.505,396.144 41.343 C 396.144 40.199,396.025 39.965,395.443 39.965 C 394.813 39.965,394.741 39.731,394.741 37.686 C 394.741 35.641,394.670 35.408,394.040 35.408 C 393.573 35.408,393.339 35.174,393.339 34.706 C 393.339 34.192,393.105 34.005,392.463 34.005 C 391.658 34.005,391.586 33.877,391.586 32.428 C 391.586 31.084,391.482 30.850,390.885 30.850 C 390.418 30.850,390.184 30.616,390.184 30.149 C 390.184 29.682,389.950 29.448,389.483 29.448 C 388.886 29.448,388.782 29.214,388.782 27.870 C 388.782 26.526,388.678 26.293,388.081 26.293 C 387.613 26.293,387.379 26.059,387.379 25.592 C 387.379 25.077,387.146 24.890,386.503 24.890 C 385.731 24.890,385.627 24.741,385.627 23.631 C 385.627 22.666,385.463 22.328,384.926 22.187 C 384.472 22.069,384.224 21.709,384.224 21.169 C 384.224 20.567,384.028 20.333,383.523 20.333 C 383.056 20.333,382.822 20.099,382.822 19.632 C 382.822 19.118,382.588 18.931,381.946 18.931 C 381.245 18.931,381.069 18.755,381.069 18.054 C 381.069 17.412,380.882 17.178,380.368 17.178 C 379.901 17.178,379.667 16.944,379.667 16.477 C 379.667 16.009,379.433 15.776,378.966 15.776 C 378.498 15.776,378.265 15.542,378.265 15.074 C 378.265 14.477,378.031 14.373,376.687 14.373 C 375.362 14.373,375.110 14.265,375.110 13.696 C 375.110 13.323,374.794 12.918,374.408 12.796 C 374.023 12.673,373.707 12.268,373.707 11.896 C 373.707 11.326,373.455 11.218,372.130 11.218 C 370.786 11.218,370.552 11.114,370.552 10.517 C 370.552 10.050,370.318 9.816,369.851 9.816 C 369.384 9.816,369.150 9.582,369.150 9.115 C 369.150 8.518,368.916 8.414,367.572 8.414 C 366.123 8.414,365.995 8.342,365.995 7.537 C 365.995 6.748,365.855 6.661,364.592 6.661 C 363.424 6.661,363.190 6.544,363.190 5.960 C 363.190 5.362,362.956 5.259,361.613 5.259 C 360.269 5.259,360.035 5.155,360.035 4.557 C 360.035 3.928,359.801 3.856,357.756 3.856 C 355.559 3.856,355.478 3.825,355.478 2.980 C 355.478 2.152,355.372 2.103,353.562 2.103 C 352.005 2.103,351.576 1.972,351.271 1.402 C 350.932 0.770,350.537 0.701,347.227 0.701 C 345.015 0.701,343.558 0.562,343.558 0.351 C 343.558 0.117,295.472 0.000,200.000 0.000 C 104.528 0.000,56.442 0.117,56.442 0.351 M383.523 105.872 C 383.730 106.258,384.096 106.573,384.336 106.573 C 384.577 106.573,385.231 107.534,385.789 108.709 C 387.274 111.836,385.993 114.111,382.430 114.674 C 381.440 114.831,380.370 115.194,380.052 115.482 C 379.734 115.770,378.768 116.113,377.905 116.244 C 377.042 116.375,376.080 116.704,375.768 116.976 C 375.455 117.247,374.372 117.600,373.363 117.759 C 372.353 117.919,371.407 118.244,371.260 118.482 C 371.113 118.720,369.876 119.037,368.511 119.187 C 367.117 119.340,365.802 119.687,365.509 119.980 C 365.223 120.266,364.046 120.607,362.894 120.737 C 361.742 120.868,360.618 121.192,360.397 121.459 C 360.176 121.725,359.334 122.055,358.527 122.191 C 357.719 122.328,356.508 122.735,355.835 123.095 C 355.162 123.456,354.134 123.751,353.550 123.751 C 352.965 123.751,351.938 124.044,351.266 124.402 C 350.594 124.760,349.307 125.162,348.407 125.296 C 347.507 125.429,346.583 125.764,346.355 126.040 C 346.126 126.316,345.156 126.645,344.199 126.772 C 343.243 126.899,342.217 127.245,341.921 127.542 C 341.614 127.849,340.528 128.149,339.402 128.239 C 338.079 128.343,337.216 128.613,336.796 129.053 C 336.376 129.494,335.680 129.711,334.688 129.711 C 333.873 129.711,332.656 130.002,331.984 130.358 C 331.312 130.714,329.982 131.110,329.029 131.237 C 327.715 131.413,326.894 131.807,325.636 132.869 C 324.723 133.638,323.671 134.268,323.297 134.268 C 322.924 134.268,322.242 134.560,321.783 134.916 C 321.279 135.306,320.051 135.656,318.694 135.794 C 317.456 135.920,316.176 136.264,315.850 136.559 C 315.525 136.853,314.408 137.190,313.370 137.306 C 312.331 137.422,311.203 137.759,310.862 138.055 C 310.522 138.351,309.339 138.664,308.233 138.751 C 307.127 138.838,305.948 139.150,305.612 139.445 C 305.276 139.740,304.191 140.109,303.201 140.266 C 302.211 140.422,301.133 140.792,300.806 141.088 C 300.479 141.384,299.434 141.730,298.484 141.857 C 297.534 141.984,296.207 142.380,295.535 142.736 C 294.662 143.198,293.562 143.384,291.679 143.385 C 289.640 143.387,288.807 143.545,287.993 144.084 C 287.415 144.467,286.466 144.782,285.884 144.783 C 285.303 144.784,284.278 145.078,283.606 145.436 C 282.934 145.795,281.602 146.204,280.646 146.345 C 279.690 146.487,278.740 146.833,278.535 147.113 C 278.319 147.409,277.279 147.714,276.066 147.839 C 274.897 147.959,273.810 148.272,273.607 148.546 C 273.408 148.817,272.540 149.127,271.679 149.235 C 270.818 149.343,269.641 149.707,269.062 150.043 C 268.484 150.380,267.379 150.751,266.608 150.867 C 265.837 150.983,264.581 151.398,263.817 151.788 C 263.053 152.178,262.186 152.499,261.889 152.500 C 261.592 152.501,260.876 152.816,260.298 153.199 C 259.639 153.635,258.653 153.896,257.659 153.898 C 256.738 153.899,255.716 154.149,255.224 154.494 C 254.758 154.821,253.554 155.199,252.549 155.336 C 248.716 155.856,247.310 158.944,249.255 162.573 C 250.727 165.320,249.124 168.975,246.445 168.975 C 246.127 168.975,245.485 169.566,245.018 170.289 C 244.206 171.548,244.071 171.611,241.857 171.779 C 240.585 171.876,239.284 172.171,238.966 172.436 C 238.503 172.820,238.282 172.830,237.864 172.483 C 237.577 172.244,235.857 171.936,234.044 171.799 C 231.682 171.621,230.580 171.383,230.160 170.963 C 229.349 170.152,228.269 170.230,227.355 171.166 C 226.931 171.599,226.084 172.347,225.474 172.827 C 224.864 173.307,224.365 173.809,224.365 173.944 C 224.365 174.078,229.216 174.237,235.145 174.298 L 245.925 174.408 247.219 175.399 C 248.150 176.111,248.544 176.701,248.621 177.502 L 248.729 178.615 258.580 178.791 C 266.635 178.934,268.545 179.062,269.061 179.492 C 269.525 179.878,270.958 180.068,274.461 180.208 C 277.822 180.342,279.591 180.568,280.456 180.974 C 281.163 181.306,283.159 181.654,285.169 181.795 C 287.612 181.966,288.976 182.235,289.727 182.692 C 290.602 183.226,291.534 183.348,294.829 183.362 C 297.595 183.373,299.301 183.549,300.263 183.921 C 301.034 184.220,303.285 184.585,305.264 184.733 C 307.662 184.912,309.065 185.179,309.470 185.535 C 309.855 185.872,311.058 186.127,312.740 186.229 C 314.863 186.358,315.553 186.544,316.158 187.148 C 316.574 187.565,317.112 187.913,317.353 187.923 C 318.750 187.977,320.546 190.633,320.699 192.870 C 320.783 194.092,321.074 195.345,321.346 195.655 C 321.617 195.964,321.935 197.237,322.051 198.483 L 322.263 200.748 320.904 202.046 C 320.156 202.760,319.197 203.435,318.772 203.546 C 318.165 203.705,317.949 204.099,317.764 205.380 C 317.470 207.410,317.100 207.888,315.820 207.888 C 314.677 207.888,314.534 208.402,315.410 209.370 C 315.904 209.916,315.933 210.150,315.574 210.725 C 315.221 211.291,315.240 211.561,315.677 212.185 C 316.434 213.266,316.353 215.328,315.513 216.397 C 315.127 216.887,314.812 217.592,314.812 217.963 C 314.812 218.559,309.377 224.489,308.098 225.288 C 307.613 225.591,307.189 226.146,305.488 228.699 C 304.824 229.696,304.482 229.951,304.195 229.663 C 303.486 228.955,302.927 229.255,302.700 230.465 C 302.465 231.718,301.103 233.254,299.909 233.612 C 299.521 233.729,298.938 234.438,298.612 235.189 C 298.249 236.029,297.508 236.869,296.688 237.372 C 295.955 237.822,295.039 238.587,294.654 239.073 C 293.369 240.694,292.732 241.192,291.937 241.200 C 291.460 241.205,290.672 241.758,289.942 242.602 C 288.993 243.700,288.491 243.996,287.585 243.996 C 286.663 243.996,286.326 244.204,285.895 245.038 C 285.011 246.747,285.875 246.708,244.738 246.925 C 209.485 247.112,205.248 247.192,204.485 247.693 C 203.724 248.191,203.469 248.197,202.145 247.746 C 200.792 247.285,200.552 247.297,199.453 247.882 C 198.101 248.602,126.744 248.941,126.012 248.231 C 125.456 247.691,121.342 247.532,98.182 247.154 C 79.642 246.852,75.850 246.707,75.383 246.284 C 74.923 245.869,72.769 245.759,63.414 245.676 L 52.005 245.574 50.910 244.479 C 50.308 243.876,49.268 242.220,48.600 240.798 C 47.715 238.915,47.114 238.091,46.391 237.765 C 45.210 237.234,43.473 234.843,43.465 233.738 C 43.458 232.634,43.080 232.167,42.080 232.025 C 41.566 231.952,40.886 231.406,40.399 230.675 C 39.950 230.000,39.112 229.248,38.537 229.005 C 37.827 228.704,37.427 228.238,37.290 227.555 C 37.166 226.934,36.569 226.164,35.731 225.544 C 34.984 224.992,34.369 224.446,34.364 224.331 C 34.360 224.215,34.040 223.758,33.655 223.313 C 33.103 222.677,32.954 222.001,32.954 220.151 C 32.954 218.284,32.800 217.603,32.209 216.852 C 31.485 215.931,31.481 215.870,32.074 214.557 C 32.766 213.020,32.577 212.445,31.376 212.445 C 30.176 212.445,29.994 211.960,29.798 208.238 L 29.623 204.908 24.716 204.733 L 19.808 204.557 18.872 202.823 C 17.942 201.099,17.941 201.084,18.609 200.234 C 19.087 199.626,19.284 198.812,19.289 197.411 C 19.295 195.999,19.491 195.195,19.982 194.566 C 20.360 194.084,20.672 193.270,20.676 192.757 C 20.682 192.061,21.425 191.084,23.607 188.901 C 25.215 187.293,26.633 185.562,26.759 185.054 C 27.197 183.280,28.728 182.082,30.850 181.852 C 32.047 181.722,33.776 181.141,35.408 180.322 C 37.928 179.056,38.221 178.993,42.471 178.808 C 46.016 178.654,47.041 178.492,47.582 178.002 C 47.962 177.657,48.810 177.388,49.518 177.388 C 50.567 177.388,50.992 177.138,52.053 175.898 L 53.328 174.408 63.191 174.305 C 72.663 174.205,73.092 174.230,74.024 174.918 C 75.587 176.074,80.519 175.976,80.973 174.780 C 81.602 173.128,86.967 172.452,89.414 173.717 C 90.230 174.139,91.505 174.232,95.444 174.155 L 100.438 174.058 100.438 173.006 L 100.438 171.954 95.629 171.857 L 90.820 171.760 88.092 169.026 C 82.137 163.060,81.529 162.210,81.332 159.578 C 81.015 155.332,81.635 154.337,84.967 153.744 C 86.418 153.485,88.344 151.753,88.344 150.706 C 88.344 148.999,89.303 148.647,94.128 148.582 C 99.214 148.514,99.911 148.209,100.384 145.846 C 100.875 143.393,102.122 142.682,105.939 142.682 C 108.846 142.682,109.404 142.776,109.796 143.330 C 110.089 143.744,110.859 144.045,111.934 144.165 C 112.857 144.268,113.883 144.592,114.212 144.887 C 115.884 146.378,119.144 144.605,117.985 142.835 C 117.686 142.379,117.441 141.767,117.441 141.475 C 117.441 141.184,117.046 140.687,116.564 140.371 C 115.376 139.592,115.420 138.547,116.652 138.277 C 118.346 137.906,118.486 137.814,118.260 137.225 C 118.078 136.752,117.782 136.700,116.601 136.932 C 112.093 137.820,110.940 137.105,110.990 133.455 C 111.052 128.858,113.696 127.691,117.090 130.762 C 117.942 131.534,118.899 132.165,119.216 132.165 C 119.738 132.165,120.702 132.869,122.446 134.522 C 122.853 134.907,123.848 135.162,125.310 135.255 C 128.572 135.463,129.535 136.522,129.535 139.896 C 129.535 141.515,129.682 142.380,129.974 142.492 C 130.298 142.616,130.412 142.027,130.412 140.217 C 130.412 137.568,131.070 136.372,132.528 136.372 C 132.920 136.372,133.636 136.113,134.119 135.796 C 135.108 135.149,139.996 135.298,140.695 135.998 C 140.901 136.203,141.684 136.372,142.435 136.372 C 144.225 136.372,145.773 137.300,145.908 138.453 C 145.997 139.216,146.211 139.368,147.333 139.461 C 148.272 139.538,148.816 139.817,149.214 140.425 C 149.943 141.537,152.225 141.593,154.230 140.548 C 155.548 139.861,155.702 139.850,156.749 140.373 C 158.295 141.144,166.333 141.168,167.795 140.405 C 169.129 139.710,170.346 139.740,171.175 140.491 C 171.778 141.036,172.765 141.108,180.020 141.140 C 187.818 141.173,188.231 141.209,189.145 141.928 C 189.672 142.343,190.358 142.685,190.670 142.690 C 190.981 142.694,191.630 143.006,192.112 143.383 C 192.689 143.834,193.543 144.071,194.611 144.076 C 195.691 144.082,196.394 144.279,196.714 144.668 C 197.851 146.049,199.950 147.239,201.247 147.239 C 205.455 147.239,208.652 152.170,204.699 152.562 C 203.474 152.683,202.747 153.488,203.080 154.356 C 203.457 155.338,214.254 155.001,215.349 153.972 C 215.801 153.547,216.335 153.199,216.536 153.199 C 216.736 153.199,217.310 152.844,217.810 152.410 C 220.725 149.885,222.422 148.862,224.144 148.594 C 225.202 148.430,226.087 148.076,226.293 147.735 C 228.052 144.828,229.097 145.320,229.097 149.055 L 229.097 151.621 230.128 151.510 C 230.694 151.449,231.329 151.165,231.538 150.879 C 231.763 150.571,232.767 150.278,234.013 150.158 C 235.166 150.046,236.601 149.660,237.202 149.298 C 237.845 148.912,238.954 148.642,239.894 148.642 C 240.882 148.642,241.703 148.430,242.045 148.089 C 242.349 147.785,243.560 147.400,244.736 147.234 C 245.912 147.068,247.133 146.704,247.451 146.426 C 247.768 146.148,248.970 145.807,250.120 145.669 C 251.313 145.525,252.577 145.130,253.060 144.750 C 253.568 144.351,254.462 144.084,255.294 144.084 C 256.151 144.084,257.023 143.816,257.573 143.383 C 258.063 142.997,258.937 142.682,259.515 142.682 C 260.093 142.682,261.058 142.387,261.659 142.026 C 262.290 141.647,263.770 141.280,265.161 141.158 C 266.731 141.021,267.707 140.759,267.965 140.406 C 268.190 140.099,269.169 139.769,270.230 139.644 C 271.258 139.522,272.671 139.130,273.371 138.773 C 274.071 138.416,275.257 138.124,276.005 138.124 C 276.807 138.124,277.710 137.853,278.205 137.464 C 278.667 137.100,279.737 136.699,280.582 136.573 C 281.427 136.446,282.724 136.033,283.464 135.656 C 284.205 135.278,285.265 134.969,285.821 134.969 C 286.376 134.969,287.232 134.654,287.722 134.268 C 288.212 133.883,288.873 133.567,289.189 133.567 C 289.506 133.567,290.035 133.252,290.366 132.866 C 290.696 132.480,291.325 132.165,291.763 132.165 C 292.202 132.165,293.111 131.871,293.783 131.513 C 294.455 131.154,295.898 130.750,296.991 130.615 C 298.214 130.463,299.052 130.175,299.171 129.864 C 299.277 129.587,299.724 129.357,300.164 129.353 C 300.604 129.348,301.642 129.037,302.470 128.661 C 303.298 128.285,304.797 127.875,305.800 127.748 C 306.804 127.622,307.940 127.244,308.326 126.908 C 308.712 126.572,309.804 126.197,310.754 126.074 C 311.704 125.951,312.748 125.610,313.073 125.316 C 313.398 125.022,314.514 124.686,315.552 124.570 C 316.591 124.453,317.733 124.104,318.090 123.793 C 318.541 123.400,319.612 123.189,321.596 123.103 C 323.335 123.028,324.661 122.794,324.987 122.505 C 325.282 122.245,326.228 121.927,327.091 121.798 C 327.953 121.670,329.025 121.336,329.472 121.056 C 329.920 120.777,331.634 120.409,333.282 120.239 C 335.111 120.050,336.511 119.719,336.876 119.388 C 337.205 119.090,338.252 118.743,339.202 118.616 C 340.152 118.489,341.305 118.094,341.765 117.738 C 342.267 117.349,343.178 117.090,344.044 117.089 C 344.866 117.088,345.980 116.787,346.634 116.388 C 347.266 116.003,348.151 115.688,348.603 115.688 C 349.054 115.688,349.816 115.379,350.296 115.002 C 350.868 114.552,352.000 114.234,353.586 114.080 C 354.915 113.950,356.265 113.616,356.586 113.337 C 356.906 113.059,358.019 112.716,359.059 112.575 C 360.099 112.434,361.331 112.051,361.797 111.724 C 362.264 111.398,363.204 111.131,363.887 111.131 C 364.570 111.131,365.725 110.811,366.453 110.421 C 367.182 110.030,368.475 109.615,369.327 109.498 C 370.180 109.382,371.144 108.991,371.470 108.631 C 371.796 108.270,372.409 107.975,372.832 107.975 C 373.254 107.975,373.964 107.660,374.408 107.274 C 374.990 106.770,375.720 106.573,377.009 106.573 C 378.131 106.573,379.258 106.318,380.023 105.892 C 381.648 104.986,383.045 104.978,383.523 105.872 M311.828 212.452 C 311.507 212.971,311.811 213.236,312.560 213.090 C 313.108 212.983,313.114 212.926,312.619 212.516 C 312.224 212.189,312.001 212.171,311.828 212.452 " stroke="none" fill="#540404" fill-rule="evenodd"></path><path id="path2" d="M380.023 105.892 C 379.258 106.318,378.131 106.573,377.009 106.573 C 375.720 106.573,374.990 106.770,374.408 107.274 C 373.964 107.660,373.254 107.975,372.832 107.975 C 372.409 107.975,371.796 108.270,371.470 108.631 C 371.144 108.991,370.180 109.382,369.327 109.498 C 368.475 109.615,367.182 110.030,366.453 110.421 C 365.725 110.811,364.570 111.131,363.887 111.131 C 363.204 111.131,362.264 111.398,361.797 111.724 C 361.331 112.051,360.099 112.434,359.059 112.575 C 358.019 112.716,356.906 113.059,356.586 113.337 C 356.265 113.616,354.915 113.950,353.586 114.080 C 352.000 114.234,350.868 114.552,350.296 115.002 C 349.816 115.379,349.054 115.688,348.603 115.688 C 348.151 115.688,347.266 116.003,346.634 116.388 C 345.980 116.787,344.866 117.088,344.044 117.089 C 343.178 117.090,342.267 117.349,341.765 117.738 C 341.305 118.094,340.152 118.489,339.202 118.616 C 338.252 118.743,337.205 119.090,336.876 119.388 C 336.511 119.719,335.111 120.050,333.282 120.239 C 331.634 120.409,329.920 120.777,329.472 121.056 C 329.025 121.336,327.953 121.670,327.091 121.798 C 326.228 121.927,325.282 122.245,324.987 122.505 C 324.661 122.794,323.335 123.028,321.596 123.103 C 319.612 123.189,318.541 123.400,318.090 123.793 C 317.733 124.104,316.591 124.453,315.552 124.570 C 314.514 124.686,313.398 125.022,313.073 125.316 C 312.748 125.610,311.704 125.951,310.754 126.074 C 309.804 126.197,308.712 126.572,308.326 126.908 C 307.940 127.244,306.804 127.622,305.800 127.748 C 304.797 127.875,303.298 128.285,302.470 128.661 C 301.642 129.037,300.604 129.348,300.164 129.353 C 299.724 129.357,299.277 129.587,299.171 129.864 C 299.052 130.175,298.214 130.463,296.991 130.615 C 295.898 130.750,294.455 131.154,293.783 131.513 C 293.111 131.871,292.202 132.165,291.763 132.165 C 291.325 132.165,290.696 132.480,290.366 132.866 C 290.035 133.252,289.506 133.567,289.189 133.567 C 288.873 133.567,288.212 133.883,287.722 134.268 C 287.232 134.654,286.376 134.969,285.821 134.969 C 285.265 134.969,284.205 135.278,283.464 135.656 C 282.724 136.033,281.427 136.446,280.582 136.573 C 279.737 136.699,278.667 137.100,278.205 137.464 C 277.710 137.853,276.807 138.124,276.005 138.124 C 275.257 138.124,274.071 138.416,273.371 138.773 C 272.671 139.130,271.258 139.522,270.230 139.644 C 269.169 139.769,268.190 140.099,267.965 140.406 C 267.707 140.760,266.733 141.020,265.161 141.157 C 263.655 141.287,262.357 141.624,261.700 142.054 C 260.722 142.694,260.710 142.727,261.525 142.524 C 262.007 142.404,263.709 142.011,265.307 141.649 C 266.905 141.288,268.412 140.827,268.655 140.626 C 268.898 140.424,269.799 140.150,270.657 140.018 C 271.515 139.886,272.973 139.485,273.896 139.126 C 274.819 138.768,276.006 138.475,276.534 138.475 C 277.063 138.475,277.806 138.257,278.187 137.991 C 278.567 137.725,279.902 137.246,281.154 136.925 C 282.405 136.605,283.581 136.192,283.765 136.007 C 283.950 135.822,284.504 135.670,284.996 135.670 C 285.916 135.670,290.037 133.870,290.973 133.060 C 291.262 132.809,292.327 132.411,293.340 132.174 C 294.353 131.937,295.258 131.620,295.352 131.469 C 295.445 131.318,296.273 131.082,297.191 130.945 C 298.109 130.808,299.255 130.485,299.737 130.227 C 300.835 129.641,306.237 127.959,307.033 127.956 C 307.359 127.954,308.098 127.640,308.677 127.257 C 309.255 126.874,310.202 126.559,310.780 126.556 C 311.358 126.554,312.608 126.159,313.556 125.678 C 314.505 125.197,315.769 124.803,316.366 124.803 C 316.963 124.803,318.040 124.487,318.759 124.102 C 319.618 123.641,320.737 123.401,322.017 123.401 C 323.215 123.401,325.209 123.001,327.189 122.365 C 328.962 121.796,331.753 121.078,333.392 120.770 C 335.031 120.462,336.780 119.987,337.280 119.715 C 337.780 119.443,338.884 119.110,339.734 118.977 C 340.584 118.843,341.604 118.523,342.001 118.266 C 342.398 118.009,343.581 117.639,344.631 117.444 C 345.680 117.249,347.011 116.865,347.590 116.590 C 350.160 115.372,352.299 114.682,354.251 114.444 C 355.408 114.303,356.904 113.894,357.576 113.535 C 358.248 113.177,359.194 112.880,359.679 112.876 C 360.164 112.872,361.249 112.556,362.089 112.175 C 362.930 111.793,363.955 111.474,364.368 111.466 C 364.781 111.457,365.749 111.209,366.521 110.914 C 367.292 110.619,368.633 110.210,369.500 110.007 C 370.368 109.803,371.454 109.342,371.914 108.981 C 372.374 108.621,373.013 108.326,373.334 108.326 C 373.655 108.326,374.093 108.151,374.307 107.936 C 374.656 107.588,379.175 106.456,381.946 106.023 C 383.329 105.807,384.558 106.912,385.406 109.133 C 386.408 111.755,385.293 113.759,382.603 114.175 C 381.856 114.290,380.793 114.612,380.241 114.891 C 379.689 115.169,378.357 115.626,377.281 115.906 C 376.205 116.186,375.158 116.553,374.954 116.721 C 374.750 116.890,373.953 117.142,373.181 117.281 C 372.410 117.420,371.332 117.761,370.786 118.038 C 370.239 118.315,368.845 118.694,367.686 118.880 C 366.528 119.067,365.240 119.435,364.824 119.699 C 364.407 119.962,363.357 120.290,362.489 120.426 C 361.621 120.562,360.250 120.972,359.441 121.336 C 358.632 121.700,357.742 121.998,357.463 121.998 C 357.185 121.998,356.269 122.310,355.428 122.692 C 354.588 123.073,353.500 123.389,353.010 123.393 C 352.521 123.397,351.544 123.694,350.839 124.054 C 350.135 124.413,348.912 124.810,348.123 124.936 C 347.334 125.062,346.104 125.478,345.391 125.861 C 344.678 126.243,343.822 126.556,343.489 126.556 C 343.156 126.556,342.083 126.871,341.104 127.257 C 340.126 127.642,338.916 127.958,338.416 127.958 C 337.915 127.958,337.014 128.253,336.413 128.614 C 335.812 128.975,334.541 129.370,333.590 129.492 C 332.638 129.615,331.534 129.926,331.136 130.183 C 330.738 130.441,329.662 130.753,328.745 130.876 C 327.537 131.038,326.585 131.489,325.295 132.509 C 324.315 133.284,323.361 133.918,323.175 133.918 C 322.988 133.918,322.174 134.213,321.366 134.574 C 320.557 134.935,319.027 135.338,317.967 135.471 C 316.906 135.604,315.708 135.927,315.305 136.189 C 314.901 136.452,313.657 136.835,312.540 137.042 C 311.423 137.248,310.328 137.567,310.106 137.751 C 309.885 137.935,308.734 138.241,307.548 138.432 C 306.363 138.623,305.027 139.009,304.580 139.289 C 304.134 139.569,303.154 139.907,302.403 140.039 C 301.651 140.171,300.705 140.485,300.299 140.738 C 299.894 140.990,298.875 141.299,298.035 141.423 C 297.195 141.548,296.091 141.862,295.581 142.120 C 295.071 142.378,293.471 142.699,292.025 142.834 C 289.543 143.064,285.063 144.267,282.734 145.329 C 282.156 145.592,281.052 145.911,280.280 146.037 C 279.509 146.163,278.524 146.488,278.092 146.759 C 277.660 147.030,276.555 147.349,275.638 147.468 C 274.721 147.587,273.729 147.892,273.435 148.146 C 273.141 148.400,272.194 148.719,271.332 148.853 C 270.469 148.988,269.214 149.390,268.542 149.747 C 267.870 150.103,266.971 150.394,266.545 150.394 C 266.120 150.394,264.382 150.964,262.684 151.660 C 260.986 152.356,258.541 153.135,257.251 153.391 C 255.961 153.648,254.541 154.086,254.096 154.367 C 253.651 154.647,252.517 154.984,251.577 155.117 C 248.974 155.485,248.188 156.460,248.264 159.230 L 248.324 161.437 248.527 159.275 C 248.774 156.633,249.698 155.723,252.524 155.339 C 253.543 155.201,254.758 154.821,255.224 154.494 C 255.716 154.149,256.738 153.899,257.659 153.898 C 258.653 153.896,259.639 153.635,260.298 153.199 C 260.876 152.816,261.592 152.501,261.889 152.500 C 262.186 152.499,263.053 152.178,263.817 151.788 C 264.581 151.398,265.837 150.983,266.608 150.867 C 267.379 150.751,268.484 150.380,269.062 150.043 C 269.641 149.707,270.818 149.343,271.679 149.235 C 272.540 149.127,273.408 148.817,273.607 148.546 C 273.810 148.272,274.897 147.959,276.066 147.839 C 277.279 147.714,278.319 147.409,278.535 147.113 C 278.740 146.833,279.690 146.487,280.646 146.345 C 281.602 146.204,282.934 145.795,283.606 145.436 C 284.278 145.078,285.303 144.784,285.884 144.783 C 286.466 144.782,287.415 144.467,287.993 144.084 C 288.807 143.545,289.640 143.387,291.679 143.385 C 293.562 143.384,294.662 143.198,295.535 142.736 C 296.207 142.380,297.534 141.984,298.484 141.857 C 299.434 141.730,300.479 141.384,300.806 141.088 C 301.133 140.792,302.211 140.422,303.201 140.266 C 304.191 140.109,305.276 139.740,305.612 139.445 C 305.948 139.150,307.127 138.838,308.233 138.751 C 309.339 138.664,310.522 138.351,310.862 138.055 C 311.203 137.759,312.331 137.422,313.370 137.306 C 314.408 137.190,315.525 136.853,315.850 136.559 C 316.176 136.264,317.456 135.920,318.694 135.794 C 320.051 135.656,321.279 135.306,321.783 134.916 C 322.242 134.560,322.924 134.268,323.297 134.268 C 323.671 134.268,324.723 133.638,325.636 132.869 C 326.894 131.807,327.715 131.413,329.029 131.237 C 329.982 131.110,331.312 130.714,331.984 130.358 C 332.656 130.002,333.873 129.711,334.688 129.711 C 335.680 129.711,336.376 129.494,336.796 129.053 C 337.216 128.613,338.079 128.343,339.402 128.239 C 340.528 128.149,341.614 127.849,341.921 127.542 C 342.217 127.245,343.243 126.899,344.199 126.772 C 345.156 126.645,346.126 126.316,346.355 126.040 C 346.583 125.764,347.507 125.429,348.407 125.296 C 349.307 125.162,350.594 124.760,351.266 124.402 C 351.938 124.044,352.965 123.751,353.550 123.751 C 354.134 123.751,355.162 123.456,355.835 123.095 C 356.508 122.735,357.719 122.328,358.527 122.191 C 359.334 122.055,360.176 121.725,360.397 121.459 C 360.618 121.192,361.742 120.868,362.894 120.737 C 364.046 120.607,365.223 120.266,365.509 119.980 C 365.802 119.687,367.117 119.340,368.511 119.187 C 369.876 119.037,371.113 118.720,371.260 118.482 C 371.407 118.244,372.353 117.919,373.363 117.759 C 374.372 117.600,375.455 117.247,375.768 116.976 C 376.080 116.704,377.042 116.375,377.905 116.244 C 378.768 116.113,379.734 115.770,380.052 115.482 C 380.370 115.194,381.440 114.831,382.430 114.674 C 385.993 114.111,387.274 111.836,385.789 108.709 C 385.231 107.534,384.577 106.573,384.336 106.573 C 384.096 106.573,383.730 106.258,383.523 105.872 C 383.045 104.978,381.648 104.986,380.023 105.892 M111.440 130.138 C 110.771 131.387,110.838 135.878,111.536 136.576 C 112.185 137.226,114.339 137.378,116.601 136.932 C 117.782 136.700,118.078 136.752,118.260 137.225 C 118.486 137.814,118.346 137.906,116.652 138.277 C 115.420 138.547,115.376 139.592,116.564 140.371 C 117.046 140.687,117.441 141.184,117.441 141.475 C 117.441 141.767,117.686 142.379,117.985 142.835 C 119.144 144.605,115.884 146.378,114.212 144.887 C 113.883 144.592,112.857 144.268,111.934 144.165 C 110.859 144.045,110.089 143.744,109.796 143.330 C 109.404 142.776,108.846 142.682,105.939 142.682 C 102.122 142.682,100.875 143.393,100.384 145.846 C 99.911 148.209,99.214 148.514,94.128 148.582 C 89.303 148.647,88.344 148.999,88.344 150.706 C 88.344 151.753,86.418 153.485,84.967 153.744 C 81.635 154.337,81.015 155.332,81.332 159.578 C 81.529 162.210,82.137 163.060,88.092 169.026 L 90.820 171.760 95.629 171.857 L 100.438 171.954 100.438 173.006 L 100.438 174.058 95.444 174.155 C 91.505 174.232,90.230 174.139,89.414 173.717 C 86.967 172.452,81.602 173.128,80.973 174.780 C 80.519 175.976,75.587 176.074,74.024 174.918 C 73.092 174.230,72.663 174.205,63.191 174.305 L 53.328 174.408 52.053 175.898 C 50.992 177.138,50.567 177.388,49.518 177.388 C 48.810 177.388,47.962 177.657,47.582 178.002 C 47.041 178.492,46.016 178.654,42.471 178.808 C 38.221 178.993,37.928 179.056,35.408 180.322 C 33.776 181.141,32.047 181.722,30.850 181.852 C 28.728 182.082,27.197 183.280,26.759 185.054 C 26.633 185.562,25.215 187.293,23.607 188.901 C 21.425 191.084,20.682 192.061,20.676 192.757 C 20.672 193.270,20.360 194.084,19.982 194.566 C 19.491 195.195,19.295 195.999,19.289 197.411 C 19.284 198.812,19.087 199.626,18.609 200.234 C 17.941 201.084,17.942 201.099,18.872 202.823 L 19.808 204.557 24.716 204.733 L 29.623 204.908 29.798 208.238 C 29.994 211.960,30.176 212.445,31.376 212.445 C 32.577 212.445,32.766 213.020,32.074 214.557 C 31.481 215.870,31.485 215.931,32.209 216.852 C 32.800 217.603,32.954 218.284,32.954 220.151 C 32.954 222.001,33.103 222.677,33.655 223.313 C 34.040 223.758,34.360 224.215,34.364 224.331 C 34.369 224.446,34.984 224.992,35.731 225.544 C 36.569 226.164,37.166 226.934,37.290 227.555 C 37.427 228.238,37.827 228.704,38.537 229.005 C 39.112 229.248,39.950 230.000,40.399 230.675 C 40.886 231.406,41.566 231.952,42.080 232.025 C 43.080 232.167,43.458 232.634,43.465 233.738 C 43.473 234.843,45.210 237.234,46.391 237.765 C 47.114 238.091,47.715 238.915,48.600 240.798 C 49.268 242.220,50.308 243.876,50.910 244.479 L 52.005 245.574 63.414 245.676 C 72.769 245.759,74.923 245.869,75.383 246.284 C 75.850 246.707,79.642 246.852,98.182 247.154 C 121.342 247.532,125.456 247.691,126.012 248.231 C 126.209 248.422,133.736 248.519,144.417 248.470 L 162.489 248.385 144.634 248.291 C 129.284 248.210,126.697 248.122,126.193 247.667 C 125.699 247.219,123.138 247.095,109.693 246.867 C 91.460 246.558,92.658 246.592,82.734 246.091 C 78.589 245.881,70.118 245.600,63.910 245.467 L 52.623 245.223 51.350 243.996 C 50.175 242.863,48.379 239.723,48.379 238.801 C 48.379 238.583,47.920 238.168,47.358 237.878 C 45.955 237.152,44.227 234.973,43.799 233.391 C 43.523 232.372,43.168 231.960,42.228 231.567 C 41.508 231.267,40.869 230.682,40.660 230.134 C 40.462 229.613,39.857 229.038,39.273 228.818 C 38.657 228.585,38.060 227.998,37.798 227.367 C 37.556 226.783,36.437 225.376,35.311 224.239 C 33.849 222.763,33.334 222.009,33.510 221.603 C 33.922 220.651,33.324 217.346,32.577 216.446 C 32.357 216.181,32.364 215.704,32.595 215.094 C 33.279 213.297,33.061 212.535,31.738 212.098 C 30.362 211.644,30.205 211.167,30.059 207.011 L 29.974 204.557 25.167 204.382 C 19.478 204.175,18.084 203.149,19.267 200.038 C 19.468 199.510,19.633 198.418,19.634 197.611 C 19.636 196.737,19.918 195.718,20.333 195.092 C 20.716 194.514,21.031 193.553,21.032 192.958 C 21.034 192.106,21.377 191.583,22.644 190.504 C 25.391 188.162,27.340 185.836,27.354 184.879 C 27.374 183.564,29.111 182.407,31.447 182.152 C 32.653 182.020,34.293 181.550,35.128 181.097 C 37.588 179.761,41.003 179.021,43.787 179.220 C 45.909 179.372,46.430 179.285,47.693 178.567 C 48.495 178.112,49.615 177.739,50.181 177.739 C 50.944 177.739,51.569 177.352,52.587 176.249 L 53.963 174.759 62.976 174.690 C 71.244 174.627,72.112 174.678,73.486 175.304 C 75.698 176.312,80.836 176.295,81.159 175.279 C 81.665 173.685,84.821 173.158,88.519 174.051 C 91.189 174.695,99.929 174.777,100.543 174.163 C 101.084 173.622,101.084 172.390,100.543 171.849 C 100.261 171.566,98.671 171.429,95.692 171.429 L 91.260 171.429 88.663 168.887 C 87.234 167.489,85.158 165.302,84.049 164.028 L 82.033 161.710 82.033 158.633 C 82.033 155.234,82.363 154.634,84.242 154.612 C 86.225 154.590,88.355 152.746,88.898 150.579 C 89.228 149.265,90.256 148.987,94.955 148.939 C 99.435 148.893,100.613 148.338,100.613 146.273 C 100.613 145.761,101.108 144.922,101.841 144.188 L 103.069 142.961 106.012 143.084 C 108.193 143.176,109.129 143.366,109.631 143.820 C 110.003 144.157,111.043 144.571,111.942 144.739 C 112.842 144.907,113.776 145.200,114.019 145.391 C 115.206 146.323,116.611 146.178,117.748 145.005 L 118.857 143.861 118.319 142.307 C 118.024 141.453,117.369 140.416,116.865 140.004 C 115.787 139.121,116.027 138.475,117.432 138.475 C 118.528 138.475,118.802 138.066,118.558 136.791 C 118.385 135.884,117.216 135.838,114.763 136.641 C 112.460 137.395,110.894 135.512,111.309 132.490 C 111.741 129.350,114.011 128.778,116.780 131.113 C 117.695 131.884,118.634 132.515,118.868 132.515 C 119.102 132.515,120.163 133.258,121.226 134.167 C 122.975 135.661,123.313 135.812,124.769 135.748 C 127.956 135.609,129.127 136.879,129.051 140.393 C 129.013 142.127,129.124 142.651,129.564 142.819 C 130.505 143.181,130.761 142.726,130.787 140.645 C 130.837 136.598,133.377 135.345,139.652 136.272 C 144.192 136.943,144.752 137.170,145.006 138.440 C 145.219 139.504,145.885 139.864,147.658 139.873 C 148.341 139.876,148.731 140.145,149.065 140.841 C 149.675 142.115,152.126 142.551,153.725 141.670 C 154.640 141.166,155.867 141.107,163.190 141.218 C 167.818 141.287,175.088 141.382,179.346 141.429 L 187.087 141.513 190.105 142.974 C 191.896 143.841,193.625 144.435,194.358 144.435 C 195.299 144.435,195.935 144.749,197.020 145.749 C 198.572 147.180,199.330 147.502,201.272 147.555 C 201.971 147.574,202.740 147.826,202.980 148.116 C 203.220 148.405,203.677 148.642,203.996 148.642 C 206.882 148.642,206.797 151.813,203.900 152.259 C 202.345 152.498,202.439 152.436,202.132 153.434 C 201.758 154.652,203.176 155.759,204.733 155.465 C 205.408 155.338,207.537 155.248,209.465 155.265 C 214.730 155.311,215.380 155.058,220.267 151.057 C 221.871 149.743,223.271 149.094,225.085 148.822 C 226.402 148.624,226.752 148.406,227.133 147.544 C 227.884 145.848,228.407 146.522,228.306 149.056 C 228.181 152.177,228.964 152.676,231.847 151.312 C 232.914 150.807,234.355 150.394,235.049 150.394 C 235.744 150.394,236.930 150.079,237.686 149.693 C 238.442 149.308,239.580 148.991,240.214 148.990 C 240.848 148.989,241.840 148.740,242.419 148.438 C 242.997 148.135,244.338 147.726,245.397 147.530 C 246.457 147.333,247.640 146.992,248.026 146.772 C 248.413 146.553,249.597 146.187,250.657 145.959 C 252.979 145.462,255.987 144.510,259.422 143.186 L 260.649 142.713 259.556 142.697 C 258.956 142.689,258.063 142.997,257.573 143.383 C 257.023 143.816,256.151 144.084,255.294 144.084 C 254.462 144.084,253.568 144.351,253.060 144.750 C 252.577 145.130,251.313 145.525,250.120 145.669 C 248.970 145.807,247.768 146.148,247.451 146.426 C 247.133 146.704,245.912 147.068,244.736 147.234 C 243.560 147.400,242.349 147.785,242.045 148.089 C 241.703 148.430,240.882 148.642,239.894 148.642 C 238.954 148.642,237.845 148.912,237.202 149.298 C 236.601 149.660,235.166 150.046,234.013 150.158 C 232.767 150.278,231.763 150.571,231.538 150.879 C 231.329 151.165,230.694 151.449,230.128 151.510 L 229.097 151.621 229.097 149.055 C 229.097 145.320,228.052 144.828,226.293 147.735 C 226.087 148.076,225.202 148.430,224.144 148.594 C 222.422 148.862,220.725 149.885,217.810 152.410 C 217.310 152.844,216.736 153.199,216.536 153.199 C 216.335 153.199,215.801 153.547,215.349 153.972 C 214.254 155.001,203.457 155.338,203.080 154.356 C 202.747 153.488,203.474 152.683,204.699 152.562 C 208.652 152.170,205.455 147.239,201.247 147.239 C 199.950 147.239,197.851 146.049,196.714 144.668 C 196.394 144.279,195.691 144.082,194.611 144.076 C 193.543 144.071,192.689 143.834,192.112 143.383 C 191.630 143.006,190.981 142.694,190.670 142.690 C 190.358 142.685,189.672 142.343,189.145 141.928 C 188.231 141.209,187.818 141.173,180.020 141.140 C 172.765 141.108,171.778 141.036,171.175 140.491 C 170.346 139.740,169.129 139.710,167.795 140.405 C 166.333 141.168,158.295 141.144,156.749 140.373 C 155.702 139.850,155.548 139.861,154.230 140.548 C 152.225 141.593,149.943 141.537,149.214 140.425 C 148.816 139.817,148.272 139.538,147.333 139.461 C 146.211 139.368,145.997 139.216,145.908 138.453 C 145.773 137.300,144.225 136.372,142.435 136.372 C 141.684 136.372,140.901 136.203,140.695 135.998 C 139.996 135.298,135.108 135.149,134.119 135.796 C 133.636 136.113,132.920 136.372,132.528 136.372 C 131.070 136.372,130.412 137.568,130.412 140.217 C 130.412 142.027,130.298 142.616,129.974 142.492 C 129.682 142.380,129.535 141.515,129.535 139.896 C 129.535 136.522,128.572 135.463,125.310 135.255 C 123.848 135.162,122.853 134.907,122.446 134.522 C 120.702 132.869,119.738 132.165,119.216 132.165 C 118.899 132.165,117.942 131.534,117.090 130.762 C 115.172 129.026,112.210 128.699,111.440 130.138 M248.554 161.715 C 248.554 161.857,248.818 162.923,249.140 164.083 L 249.727 166.193 248.527 167.213 C 247.867 167.774,246.913 168.330,246.407 168.447 C 245.901 168.564,244.998 169.268,244.401 170.011 C 243.290 171.394,242.651 171.588,238.387 171.837 C 237.474 171.891,233.968 171.332,231.551 170.747 C 230.780 170.561,229.728 170.306,229.212 170.182 C 228.346 169.972,224.152 172.829,223.726 173.919 C 223.517 174.454,225.208 174.571,235.232 174.714 C 246.804 174.879,248.181 175.189,248.198 177.630 C 248.201 178.053,248.328 178.476,248.481 178.570 C 249.509 179.206,248.319 176.240,247.202 175.386 L 245.925 174.408 235.145 174.298 C 229.216 174.237,224.365 174.078,224.365 173.944 C 224.365 173.809,224.864 173.307,225.474 172.827 C 226.084 172.347,226.931 171.599,227.355 171.166 C 228.269 170.230,229.349 170.152,230.160 170.963 C 230.580 171.383,231.682 171.621,234.044 171.799 C 235.857 171.936,237.577 172.244,237.864 172.483 C 238.282 172.830,238.503 172.820,238.966 172.436 C 239.284 172.171,240.585 171.876,241.857 171.779 C 244.071 171.611,244.206 171.548,245.018 170.289 C 245.485 169.566,246.127 168.975,246.445 168.975 C 248.160 168.975,250.024 166.770,249.876 164.918 C 249.765 163.534,248.554 160.599,248.554 161.715 M258.720 179.151 C 263.252 179.295,267.510 179.588,268.183 179.802 C 269.916 180.355,270.229 180.288,269.228 179.579 C 268.461 179.036,267.333 178.962,259.422 178.928 L 250.482 178.891 258.720 179.151 M274.101 180.561 C 276.294 180.729,278.818 181.098,279.710 181.380 C 280.602 181.663,282.859 181.998,284.725 182.126 C 286.729 182.263,288.380 182.556,288.757 182.842 C 289.108 183.108,289.711 183.330,290.096 183.335 C 292.631 183.371,288.289 182.014,285.169 181.795 C 283.130 181.652,281.173 181.309,280.456 180.968 C 279.537 180.532,278.085 180.370,274.671 180.321 L 270.114 180.255 274.101 180.561 M294.829 183.685 C 297.046 183.807,299.209 184.099,299.635 184.333 C 300.061 184.568,302.112 184.931,304.193 185.140 C 306.273 185.350,308.284 185.686,308.662 185.888 C 309.040 186.090,310.554 186.377,312.027 186.525 C 316.735 187.000,320.404 190.127,320.432 193.690 C 320.439 194.654,320.671 195.837,320.947 196.319 C 322.325 198.731,321.496 201.371,318.843 203.015 C 318.052 203.505,317.701 204.074,317.428 205.312 C 317.110 206.751,316.911 207.009,315.850 207.366 C 314.565 207.799,314.138 208.654,314.806 209.459 C 315.332 210.093,314.104 211.391,312.971 211.399 C 311.846 211.407,311.217 211.899,311.363 212.658 C 311.533 213.540,312.471 213.667,313.825 212.991 C 315.701 212.055,316.230 213.871,314.862 216.552 C 314.449 217.363,314.110 218.260,314.110 218.544 C 314.110 218.829,313.428 219.553,312.593 220.152 C 311.759 220.751,310.694 221.859,310.227 222.613 C 309.760 223.367,308.950 224.165,308.426 224.387 C 307.903 224.608,307.114 225.351,306.673 226.036 C 306.233 226.722,305.635 227.651,305.346 228.102 C 304.978 228.674,304.489 228.921,303.718 228.921 C 302.605 228.922,302.191 229.395,302.191 230.667 C 302.191 231.370,300.183 233.291,299.083 233.640 C 298.688 233.765,298.288 234.297,298.163 234.864 C 298.027 235.485,297.428 236.224,296.590 236.804 C 295.846 237.320,294.602 238.439,293.826 239.292 C 293.032 240.165,292.101 240.841,291.695 240.841 C 291.298 240.841,290.323 241.472,289.529 242.244 C 288.646 243.100,287.752 243.646,287.230 243.646 C 286.740 243.646,285.973 244.078,285.432 244.657 C 284.068 246.118,285.709 246.039,252.235 246.270 C 224.659 246.461,201.349 246.913,200.999 247.263 C 200.481 247.781,203.754 248.172,204.503 247.681 C 205.242 247.196,209.859 247.110,244.738 246.925 C 285.875 246.708,285.011 246.747,285.895 245.038 C 286.326 244.204,286.663 243.996,287.585 243.996 C 288.491 243.996,288.993 243.700,289.942 242.602 C 290.672 241.758,291.460 241.205,291.937 241.200 C 292.732 241.192,293.369 240.694,294.654 239.073 C 295.039 238.587,295.955 237.822,296.688 237.372 C 297.508 236.869,298.249 236.029,298.612 235.189 C 298.938 234.438,299.521 233.729,299.909 233.612 C 301.103 233.254,302.465 231.718,302.700 230.465 C 302.927 229.255,303.486 228.955,304.195 229.663 C 304.482 229.951,304.824 229.696,305.488 228.699 C 307.189 226.146,307.613 225.591,308.098 225.288 C 309.377 224.489,314.812 218.559,314.812 217.963 C 314.812 217.592,315.127 216.887,315.513 216.397 C 316.353 215.328,316.434 213.266,315.677 212.185 C 315.240 211.561,315.221 211.291,315.574 210.725 C 315.933 210.150,315.904 209.916,315.410 209.370 C 314.534 208.402,314.677 207.888,315.820 207.888 C 317.100 207.888,317.470 207.410,317.764 205.380 C 317.949 204.099,318.165 203.705,318.772 203.546 C 319.197 203.435,320.156 202.760,320.904 202.046 L 322.263 200.748 322.051 198.483 C 321.935 197.237,321.617 195.964,321.346 195.655 C 321.074 195.345,320.783 194.092,320.699 192.870 C 320.546 190.633,318.750 187.977,317.353 187.923 C 317.112 187.913,316.574 187.565,316.158 187.148 C 315.553 186.544,314.863 186.358,312.740 186.229 C 311.058 186.127,309.855 185.872,309.470 185.535 C 309.065 185.179,307.662 184.912,305.264 184.733 C 303.285 184.585,301.034 184.220,300.263 183.921 C 299.259 183.533,297.716 183.391,294.829 183.421 L 290.798 183.463 294.829 183.685 M312.560 213.090 C 311.811 213.236,311.507 212.971,311.828 212.452 C 312.001 212.171,312.224 212.189,312.619 212.516 C 313.114 212.926,313.108 212.983,312.560 213.090 M198.598 247.600 C 198.094 247.908,194.147 248.081,184.575 248.215 L 171.253 248.402 184.750 248.463 C 197.455 248.521,198.319 248.485,199.474 247.853 C 200.386 247.353,200.521 247.180,200.000 247.177 C 199.614 247.175,198.983 247.365,198.598 247.600 " stroke="none" fill="#8c7474" fill-rule="evenodd"></path><path id="path3" d="M111.212 133.567 C 111.212 134.242,111.284 134.518,111.372 134.181 C 111.460 133.843,111.460 133.291,111.372 132.954 C 111.284 132.616,111.212 132.892,111.212 133.567 M182.910 141.527 C 183.344 141.611,184.053 141.611,184.487 141.527 C 184.921 141.443,184.566 141.375,183.699 141.375 C 182.831 141.375,182.476 141.443,182.910 141.527 M84.224 173.783 C 84.755 173.863,85.622 173.863,86.152 173.783 C 86.683 173.703,86.249 173.637,85.188 173.637 C 84.128 173.637,83.694 173.703,84.224 173.783 M76.517 176.238 C 77.050 176.318,77.838 176.316,78.270 176.233 C 78.701 176.150,78.265 176.084,77.301 176.086 C 76.337 176.089,75.984 176.157,76.517 176.238 M55.657 245.296 C 56.093 245.380,56.724 245.377,57.059 245.289 C 57.394 245.201,57.038 245.133,56.266 245.137 C 55.495 245.141,55.221 245.212,55.657 245.296 M78.966 246.010 C 80.653 246.075,83.414 246.075,85.101 246.010 C 86.788 245.946,85.408 245.894,82.033 245.894 C 78.659 245.894,77.279 245.946,78.966 246.010 M260.215 246.001 C 260.748 246.081,261.537 246.079,261.968 245.996 C 262.399 245.913,261.963 245.847,260.999 245.850 C 260.035 245.852,259.682 245.920,260.215 246.001 M267.923 246.005 C 268.646 246.080,269.829 246.080,270.552 246.005 C 271.275 245.929,270.684 245.867,269.238 245.867 C 267.791 245.867,267.200 245.929,267.923 246.005 M277.577 246.009 C 278.790 246.078,280.683 246.077,281.784 246.008 C 282.885 245.939,281.893 245.882,279.579 245.883 C 277.266 245.884,276.365 245.941,277.577 246.009 M237.073 246.361 C 238.953 246.424,242.029 246.424,243.909 246.361 C 245.789 246.298,244.251 246.247,240.491 246.247 C 236.731 246.247,235.193 246.298,237.073 246.361 M164.505 248.463 C 165.806 248.531,167.936 248.531,169.238 248.463 C 170.539 248.396,169.474 248.341,166.871 248.341 C 164.268 248.341,163.203 248.396,164.505 248.463 " stroke="none" fill="#917c7c" fill-rule="evenodd"></path><path id="path4" d="M379.842 106.589 C 378.878 106.935,377.428 107.231,376.620 107.246 C 375.812 107.262,375.061 107.421,374.950 107.599 C 374.840 107.778,374.160 108.117,373.439 108.351 C 372.719 108.586,371.753 109.071,371.294 109.429 C 370.834 109.786,370.045 110.080,369.541 110.081 C 369.037 110.082,368.196 110.306,367.673 110.579 C 367.150 110.852,365.843 111.258,364.768 111.481 C 363.693 111.704,362.386 112.110,361.862 112.383 C 361.339 112.656,360.517 112.884,360.035 112.889 C 359.553 112.894,358.512 113.193,357.721 113.552 C 356.930 113.911,355.116 114.401,353.689 114.640 C 352.263 114.880,350.784 115.292,350.404 115.557 C 350.024 115.822,349.472 116.040,349.177 116.041 C 348.883 116.042,348.214 116.266,347.691 116.539 C 347.167 116.812,345.833 117.223,344.725 117.453 C 343.617 117.683,342.388 118.082,341.995 118.340 C 341.601 118.597,340.570 118.919,339.702 119.054 C 338.834 119.189,337.575 119.592,336.903 119.948 C 336.231 120.304,335.284 120.597,334.799 120.599 C 334.009 120.602,329.265 121.768,326.030 122.755 C 325.355 122.961,323.699 123.235,322.349 123.364 C 320.999 123.493,319.422 123.847,318.843 124.152 C 318.265 124.456,317.106 124.810,316.269 124.939 C 315.432 125.067,314.170 125.461,313.465 125.815 C 312.759 126.169,311.500 126.545,310.665 126.652 C 309.831 126.759,308.884 127.079,308.562 127.363 C 308.239 127.647,307.423 127.990,306.748 128.124 C 305.087 128.455,300.254 129.962,299.483 130.389 C 299.141 130.579,298.151 130.888,297.283 131.077 C 295.142 131.542,292.387 132.451,291.323 133.043 C 288.925 134.379,286.021 135.670,285.417 135.670 C 285.044 135.670,284.051 135.983,283.211 136.364 C 282.370 136.745,281.367 137.062,280.982 137.067 C 280.596 137.073,279.807 137.324,279.229 137.626 C 278.650 137.928,277.388 138.324,276.424 138.505 C 275.460 138.687,274.198 139.053,273.620 139.320 C 273.041 139.587,271.858 139.919,270.990 140.058 C 270.123 140.197,268.981 140.532,268.453 140.802 C 267.924 141.073,266.426 141.513,265.122 141.782 C 261.947 142.435,258.631 143.377,258.172 143.755 C 257.967 143.924,256.814 144.292,255.611 144.572 C 254.407 144.853,253.234 145.234,253.004 145.418 C 252.774 145.602,251.718 145.916,250.657 146.115 C 249.597 146.315,247.980 146.728,247.064 147.034 C 246.148 147.340,244.649 147.840,243.734 148.145 C 242.818 148.450,241.358 148.832,240.491 148.994 C 239.623 149.156,238.361 149.517,237.686 149.798 C 237.011 150.079,235.676 150.421,234.719 150.559 C 233.762 150.697,232.395 151.146,231.681 151.557 C 229.470 152.830,228.402 152.168,228.374 149.505 C 228.339 146.154,227.996 145.593,227.183 147.556 C 226.772 148.548,225.977 148.978,224.535 148.987 C 223.533 148.994,221.778 150.000,218.564 152.410 C 214.634 155.356,214.923 155.270,208.642 155.376 C 202.361 155.482,201.600 155.254,202.064 153.407 C 202.245 152.684,202.567 152.460,203.680 152.282 C 206.312 151.861,207.007 149.758,204.776 148.964 C 204.270 148.784,203.438 148.401,202.926 148.113 C 202.414 147.825,201.502 147.590,200.899 147.590 C 199.341 147.590,197.606 146.781,196.805 145.682 C 196.296 144.983,195.713 144.687,194.554 144.540 C 193.693 144.431,191.805 143.772,190.359 143.077 L 187.730 141.813 179.492 141.568 C 163.051 141.077,154.411 141.158,153.414 141.811 C 152.095 142.676,149.917 142.228,148.970 140.899 C 148.430 140.140,147.956 139.876,147.128 139.872 C 145.703 139.865,145.321 139.596,144.897 138.300 C 144.614 137.436,144.308 137.208,143.179 137.023 C 135.773 135.809,136.201 135.825,133.615 136.658 C 130.944 137.518,130.762 137.805,130.762 141.159 C 130.762 142.215,130.595 142.768,130.232 142.907 C 129.212 143.299,128.767 142.450,128.934 140.430 C 129.062 138.888,128.944 138.276,128.322 137.269 C 127.518 135.970,127.407 135.925,124.769 135.858 C 123.384 135.822,122.885 135.584,121.225 134.166 C 120.163 133.258,119.019 132.515,118.683 132.515 C 118.347 132.515,117.634 132.082,117.098 131.551 C 115.081 129.555,114.316 129.301,112.773 130.114 C 109.829 131.663,111.330 137.127,114.546 136.572 C 118.482 135.893,118.382 135.885,118.632 136.881 C 118.910 137.988,118.667 138.475,117.838 138.475 C 116.497 138.475,115.753 139.432,116.786 139.827 C 117.593 140.135,118.843 142.531,118.843 143.769 C 118.843 145.478,115.922 146.500,113.935 145.486 C 113.179 145.101,112.200 144.785,111.758 144.784 C 111.317 144.783,110.403 144.433,109.728 144.005 C 106.540 141.985,101.329 143.227,100.793 146.135 C 100.336 148.609,99.609 148.987,95.206 149.034 C 89.859 149.091,89.431 149.216,88.856 150.893 C 88.171 152.890,86.722 154.182,84.753 154.550 C 82.201 155.026,82.033 155.287,82.033 158.769 L 82.033 161.800 85.627 165.657 C 91.158 171.593,90.518 171.232,95.765 171.376 C 100.627 171.509,101.100 171.698,100.902 173.423 L 100.789 174.408 95.180 174.361 C 92.095 174.335,88.034 174.198,86.157 174.057 L 82.743 173.799 81.664 174.955 C 80.281 176.435,75.662 176.731,73.781 175.460 C 72.815 174.808,72.160 174.759,64.330 174.755 C 54.667 174.750,53.788 174.863,52.585 176.267 C 51.543 177.484,50.476 178.089,49.366 178.092 C 48.919 178.093,48.081 178.412,47.502 178.801 C 46.615 179.398,46.111 179.474,44.277 179.286 C 41.588 179.010,37.292 179.878,35.107 181.138 C 34.124 181.705,32.813 182.086,31.426 182.207 C 29.074 182.412,27.389 183.711,27.359 185.344 C 27.351 185.767,27.011 186.346,26.603 186.632 C 26.195 186.918,25.563 187.642,25.199 188.241 C 24.834 188.841,24.261 189.432,23.924 189.556 C 22.840 189.955,21.034 192.124,21.034 193.028 C 21.034 193.504,20.719 194.511,20.333 195.267 C 19.947 196.023,19.632 197.142,19.632 197.754 C 19.632 198.366,19.456 199.454,19.241 200.172 C 18.259 203.448,19.752 204.382,25.965 204.382 C 30.368 204.382,30.340 204.362,30.201 207.469 C 30.052 210.800,30.330 211.634,31.750 212.102 C 33.015 212.520,33.283 213.434,32.622 215.074 C 32.466 215.460,32.478 215.950,32.647 216.164 C 33.085 216.714,33.723 219.769,33.685 221.133 C 33.646 222.554,34.417 223.778,35.947 224.724 C 36.663 225.166,37.273 225.922,37.521 226.674 C 37.784 227.471,38.398 228.200,39.269 228.750 C 40.007 229.216,40.714 229.923,40.840 230.321 C 40.967 230.719,41.650 231.317,42.358 231.650 C 43.239 232.064,43.684 232.527,43.768 233.117 C 43.945 234.369,45.720 236.792,47.052 237.600 C 47.868 238.095,48.450 238.898,49.050 240.359 C 49.915 242.466,51.162 244.109,52.410 244.789 C 53.152 245.194,53.368 245.202,74.145 245.572 C 83.877 245.746,88.071 245.948,89.707 246.324 C 90.938 246.607,92.172 246.752,92.448 246.646 C 93.735 246.153,125.889 247.136,126.439 247.686 C 127.182 248.429,197.608 248.324,198.507 247.578 C 198.874 247.273,200.728 247.079,204.257 246.977 C 229.447 246.250,236.944 246.103,246.626 246.149 C 251.060 246.170,255.635 246.172,256.792 246.153 C 263.015 246.050,275.949 245.856,279.874 245.806 L 284.375 245.749 285.298 244.698 C 285.806 244.119,286.522 243.646,286.890 243.646 C 287.759 243.646,289.835 242.359,290.267 241.552 C 290.452 241.206,291.120 240.822,291.752 240.699 C 292.524 240.548,293.220 240.043,293.874 239.157 C 294.410 238.433,295.475 237.453,296.241 236.979 C 297.132 236.428,297.771 235.704,298.014 234.968 C 298.247 234.261,298.809 233.603,299.472 233.260 C 301.153 232.391,302.131 231.297,302.254 230.149 C 302.347 229.274,302.551 229.068,303.465 228.922 C 304.482 228.760,307.099 226.232,307.099 225.412 C 307.099 225.253,307.630 224.795,308.279 224.394 C 308.928 223.992,309.854 223.067,310.337 222.338 C 310.820 221.609,311.790 220.622,312.492 220.147 C 313.316 219.588,313.894 218.846,314.121 218.054 C 314.314 217.379,314.706 216.521,314.993 216.147 C 315.279 215.773,315.513 214.875,315.513 214.152 C 315.513 212.797,314.933 212.032,314.472 212.777 C 314.118 213.350,311.463 213.684,311.160 213.194 C 310.707 212.461,311.604 211.553,313.203 211.125 C 314.849 210.685,315.196 210.090,314.473 208.948 C 314.040 208.261,315.005 207.187,316.055 207.187 C 316.901 207.187,317.266 206.589,317.266 205.203 C 317.266 204.722,317.621 204.034,318.054 203.674 C 321.565 200.758,321.472 200.877,321.472 199.270 C 321.472 198.426,321.247 197.141,320.973 196.414 C 320.698 195.687,320.367 194.153,320.237 193.005 C 319.870 189.749,316.459 187.021,312.289 186.650 C 311.074 186.542,309.448 186.239,308.677 185.977 C 307.905 185.715,305.646 185.331,303.656 185.124 C 301.665 184.917,299.705 184.570,299.299 184.353 C 298.893 184.136,296.578 183.847,294.154 183.710 C 291.311 183.551,289.372 183.271,288.694 182.922 C 288.105 182.620,286.113 182.270,284.163 182.127 C 282.249 181.986,280.101 181.666,279.391 181.415 C 278.680 181.164,276.302 180.848,274.106 180.712 C 271.911 180.576,269.246 180.232,268.186 179.947 C 266.853 179.590,263.579 179.370,257.584 179.237 C 248.504 179.036,248.374 179.010,248.149 177.388 C 247.856 175.271,245.911 174.889,234.453 174.697 C 222.896 174.503,222.546 174.424,224.992 172.566 C 225.900 171.876,226.860 171.007,227.124 170.636 C 227.641 169.911,228.534 169.924,231.727 170.706 C 236.067 171.769,238.092 171.943,241.128 171.514 C 243.104 171.235,243.487 171.043,244.681 169.737 C 245.417 168.932,246.323 168.273,246.695 168.273 C 248.671 168.273,249.672 165.687,248.729 163.015 C 247.247 158.813,248.287 155.619,251.306 155.102 C 252.010 154.981,253.559 154.504,254.749 154.041 C 255.938 153.578,257.364 153.199,257.917 153.199 C 258.470 153.199,260.257 152.631,261.889 151.937 C 263.520 151.242,265.524 150.538,266.341 150.371 C 267.157 150.203,268.262 149.846,268.794 149.576 C 269.327 149.307,270.378 148.974,271.129 148.838 C 271.880 148.702,272.827 148.384,273.233 148.132 C 273.638 147.879,274.680 147.567,275.548 147.438 C 276.415 147.309,277.444 146.995,277.834 146.740 C 278.224 146.485,279.249 146.160,280.113 146.017 C 280.976 145.874,282.077 145.556,282.559 145.309 C 284.536 144.296,289.517 142.945,292.171 142.702 C 293.730 142.560,295.509 142.181,296.126 141.861 C 296.743 141.541,297.690 141.274,298.230 141.268 C 298.770 141.261,299.842 140.951,300.613 140.578 C 301.385 140.206,302.334 139.896,302.722 139.889 C 303.111 139.883,304.017 139.562,304.737 139.176 C 305.456 138.791,306.479 138.468,307.010 138.460 C 307.541 138.451,308.606 138.208,309.378 137.920 C 311.244 137.222,315.155 136.103,317.967 135.463 C 321.193 134.729,323.867 133.596,325.560 132.245 C 326.540 131.462,327.597 130.989,328.788 130.801 C 329.762 130.647,330.768 130.348,331.023 130.136 C 331.279 129.924,332.458 129.594,333.644 129.403 C 334.829 129.212,336.165 128.828,336.611 128.548 C 337.058 128.269,338.073 127.945,338.867 127.827 C 339.661 127.710,340.765 127.377,341.321 127.087 C 341.877 126.797,342.604 126.559,342.938 126.558 C 343.271 126.557,344.533 126.182,345.742 125.726 C 348.954 124.513,351.217 123.766,353.199 123.267 C 354.163 123.024,355.267 122.660,355.653 122.458 C 356.039 122.256,356.969 121.979,357.720 121.844 C 358.471 121.708,359.428 121.373,359.846 121.099 C 360.264 120.825,361.357 120.497,362.275 120.372 C 363.193 120.246,364.518 119.850,365.219 119.493 C 365.920 119.136,366.894 118.845,367.384 118.847 C 368.258 118.850,372.296 117.604,375.525 116.334 C 376.429 115.979,377.421 115.688,377.730 115.688 C 378.039 115.688,378.911 115.372,379.667 114.987 C 380.423 114.601,381.379 114.286,381.791 114.286 C 384.356 114.286,386.503 111.518,385.472 109.542 C 385.174 108.969,384.929 108.312,384.928 108.081 C 384.925 107.535,382.727 105.859,382.088 105.916 C 381.817 105.940,380.806 106.243,379.842 106.589 M383.588 107.364 C 384.581 108.194,385.193 109.991,385.003 111.517 C 384.877 112.527,382.721 113.727,380.293 114.138 C 379.577 114.260,378.808 114.579,378.585 114.848 C 378.362 115.117,377.843 115.344,377.433 115.353 C 377.023 115.361,376.056 115.606,375.285 115.897 C 374.514 116.188,371.753 117.041,369.150 117.791 C 366.547 118.542,363.786 119.395,363.015 119.686 C 362.244 119.977,361.257 120.222,360.823 120.230 C 360.388 120.238,359.444 120.561,358.724 120.947 C 358.005 121.332,357.019 121.649,356.535 121.650 C 356.050 121.651,355.183 121.897,354.608 122.197 C 354.034 122.496,352.772 122.910,351.804 123.116 C 350.836 123.322,349.733 123.707,349.352 123.972 C 348.972 124.236,348.291 124.452,347.840 124.452 C 347.388 124.452,346.280 124.753,345.376 125.120 C 344.473 125.488,342.314 126.209,340.578 126.723 C 338.843 127.237,336.556 127.950,335.495 128.306 C 334.435 128.663,333.015 129.047,332.340 129.159 C 331.665 129.271,330.640 129.591,330.061 129.871 C 329.483 130.151,328.423 130.472,327.706 130.585 C 326.989 130.698,326.196 130.981,325.944 131.214 C 324.093 132.926,321.012 134.265,317.327 134.960 C 316.301 135.153,314.960 135.536,314.347 135.811 C 313.735 136.085,312.366 136.506,311.306 136.747 C 310.245 136.987,308.870 137.395,308.250 137.654 C 307.629 137.913,306.799 138.124,306.405 138.124 C 306.011 138.124,305.020 138.428,304.203 138.799 C 303.386 139.170,302.165 139.586,301.491 139.722 C 300.817 139.859,299.792 140.174,299.213 140.422 C 297.591 141.117,293.524 142.040,290.744 142.344 C 289.366 142.495,287.492 142.948,286.581 143.351 C 285.670 143.754,284.624 144.084,284.257 144.084 C 283.890 144.084,282.653 144.479,281.507 144.961 C 280.362 145.443,279.144 145.838,278.801 145.839 C 278.458 145.840,277.755 146.061,277.240 146.330 C 276.725 146.599,275.494 146.992,274.506 147.204 C 273.517 147.416,272.282 147.805,271.762 148.069 C 271.241 148.332,270.200 148.659,269.449 148.795 C 268.698 148.932,267.751 149.250,267.346 149.502 C 266.940 149.755,265.902 150.066,265.040 150.194 C 264.177 150.323,263.228 150.648,262.931 150.917 C 262.634 151.186,261.762 151.566,260.994 151.761 C 256.281 152.962,254.110 153.579,252.331 154.224 C 251.227 154.624,250.084 154.952,249.790 154.952 C 247.920 154.952,247.238 159.122,248.281 164.172 C 248.730 166.343,247.873 167.923,246.248 167.923 C 245.965 167.923,245.067 168.526,244.252 169.263 C 241.927 171.365,237.866 171.797,233.357 170.422 C 230.099 169.429,227.623 169.362,226.938 170.249 C 226.715 170.538,225.689 171.403,224.659 172.171 C 221.027 174.881,221.977 175.204,234.190 175.410 C 245.582 175.602,247.609 175.924,247.796 177.570 C 247.997 179.341,248.101 179.366,256.057 179.606 C 260.187 179.730,264.961 180.060,266.665 180.340 C 268.369 180.620,271.341 180.954,273.269 181.084 C 275.197 181.213,277.052 181.466,277.390 181.646 C 277.728 181.825,279.858 182.139,282.123 182.342 C 284.387 182.546,287.142 183.013,288.245 183.381 C 289.347 183.748,291.162 184.058,292.276 184.070 C 293.391 184.081,295.013 184.220,295.881 184.377 C 296.748 184.535,299.115 184.935,301.139 185.266 C 303.164 185.597,306.349 186.168,308.218 186.536 C 310.087 186.904,312.101 187.204,312.694 187.204 C 313.807 187.204,317.266 188.806,317.266 189.321 C 317.266 189.480,317.542 189.700,317.879 189.809 C 318.764 190.095,319.718 191.964,319.932 193.830 C 320.034 194.717,320.281 196.196,320.481 197.117 C 321.048 199.720,320.662 200.935,318.859 202.229 C 318.007 202.842,317.235 203.616,317.144 203.950 C 317.054 204.284,316.884 204.991,316.766 205.521 C 316.629 206.134,316.322 206.486,315.924 206.486 C 314.658 206.486,313.935 207.399,313.935 208.999 L 313.935 210.517 312.364 210.629 C 310.283 210.777,309.857 211.155,310.309 212.452 C 310.671 213.490,311.669 214.057,312.834 213.886 C 314.487 213.643,315.208 214.144,314.683 215.170 C 314.415 215.696,314.089 216.619,313.959 217.222 C 313.698 218.435,312.608 219.597,311.383 219.969 C 310.898 220.116,310.292 220.830,309.846 221.779 C 309.335 222.866,308.707 223.552,307.792 224.018 C 307.028 224.408,306.319 225.100,306.103 225.667 C 305.554 227.104,304.521 228.151,303.377 228.432 C 302.242 228.710,301.854 229.137,301.846 230.118 C 301.840 230.824,299.899 232.778,299.202 232.778 C 298.645 232.778,297.734 233.854,297.580 234.695 C 297.510 235.074,296.789 235.830,295.978 236.375 C 295.166 236.920,294.063 237.984,293.526 238.739 C 292.916 239.597,292.163 240.199,291.516 240.345 C 290.947 240.473,290.040 241.019,289.501 241.558 C 288.961 242.098,287.928 242.735,287.205 242.973 C 286.481 243.211,285.337 243.841,284.663 244.372 L 283.436 245.338 250.482 245.474 C 227.177 245.571,217.321 245.725,216.819 246.001 C 216.381 246.241,212.756 246.465,207.353 246.584 C 202.538 246.690,197.730 246.958,196.670 247.179 C 192.921 247.959,127.690 248.037,126.835 247.261 C 126.199 246.686,125.007 246.601,114.162 246.359 C 102.149 246.092,97.214 245.935,82.910 245.369 C 78.668 245.201,70.189 244.970,64.068 244.855 L 52.939 244.645 51.535 243.337 C 50.763 242.617,50.131 241.894,50.131 241.731 C 50.131 241.143,48.351 237.686,48.048 237.686 C 47.354 237.686,45.270 235.222,44.389 233.361 C 43.873 232.269,43.225 231.376,42.949 231.376 C 42.674 231.376,42.008 230.819,41.470 230.138 C 40.931 229.457,39.983 228.597,39.363 228.228 C 38.702 227.835,38.135 227.150,37.993 226.574 C 37.632 225.111,36.874 224.106,35.957 223.876 C 35.111 223.664,34.719 222.792,34.711 221.104 C 34.709 220.565,34.437 219.618,34.107 219.001 C 33.727 218.288,33.479 216.920,33.427 215.250 C 33.382 213.804,33.336 212.513,33.325 212.381 C 33.313 212.250,32.958 212.032,32.535 211.898 C 30.871 211.370,30.491 210.410,30.724 207.325 C 31.017 203.444,30.848 203.330,24.804 203.330 L 20.316 203.330 19.969 202.417 C 19.545 201.304,20.069 196.534,20.697 195.777 C 20.933 195.493,21.260 194.543,21.424 193.666 C 21.733 192.011,23.076 190.298,24.390 189.881 C 24.775 189.759,25.389 189.146,25.755 188.519 C 26.121 187.892,26.695 187.182,27.030 186.941 C 27.365 186.700,27.739 186.051,27.860 185.500 C 28.245 183.744,29.687 182.758,32.177 182.547 C 33.410 182.443,34.800 182.085,35.332 181.736 C 36.950 180.676,39.975 180.056,43.726 180.017 C 46.906 179.984,47.403 179.893,48.130 179.210 C 48.581 178.786,49.363 178.440,49.868 178.440 C 51.291 178.440,52.502 177.853,52.761 177.038 C 53.177 175.727,54.490 175.526,63.278 175.430 C 70.951 175.347,71.877 175.402,73.795 176.050 C 76.802 177.067,80.345 176.814,81.568 175.494 L 82.432 174.563 91.333 174.803 C 101.154 175.069,101.315 175.040,101.315 173.006 C 101.315 171.369,100.902 171.199,96.341 170.950 C 90.678 170.641,91.202 170.926,86.138 165.413 L 82.706 161.676 82.808 158.577 C 82.907 155.560,82.933 155.475,83.786 155.386 C 86.716 155.078,88.657 153.638,89.232 151.349 C 89.557 150.053,90.875 149.662,95.285 149.552 C 99.869 149.438,100.500 149.144,101.003 146.889 C 101.685 143.828,105.852 142.594,109.286 144.435 C 110.006 144.820,110.841 145.136,111.143 145.136 C 111.445 145.136,111.841 145.267,112.025 145.427 C 112.500 145.843,115.080 146.538,116.149 146.538 C 117.836 146.538,119.272 144.567,119.026 142.590 C 118.751 140.383,118.592 140.029,117.693 139.628 C 116.953 139.298,116.960 139.277,117.976 138.791 C 121.458 137.127,118.385 134.524,114.736 136.046 C 112.400 137.020,110.345 132.284,112.583 131.086 C 113.729 130.473,116.088 130.923,116.913 131.912 C 117.300 132.376,118.374 133.114,119.300 133.552 C 120.225 133.990,121.219 134.709,121.508 135.149 C 122.185 136.183,123.550 136.698,125.410 136.621 C 127.627 136.529,128.133 137.216,128.133 140.322 C 128.133 142.749,128.171 142.863,129.132 143.325 C 130.515 143.990,130.865 143.529,131.288 140.477 C 131.744 137.197,132.262 136.894,137.248 136.991 C 142.693 137.097,144.235 137.419,144.372 138.478 C 144.524 139.662,145.359 140.228,146.951 140.228 C 148.132 140.228,148.337 140.361,148.779 141.417 C 149.441 143.002,152.123 143.519,153.982 142.420 C 157.318 140.446,187.990 141.887,191.020 144.158 C 191.530 144.541,192.463 144.785,193.414 144.785 C 194.756 144.785,195.167 144.977,196.386 146.171 C 197.479 147.242,198.248 147.650,199.776 147.965 C 205.496 149.146,207.764 151.763,203.093 151.792 C 201.236 151.804,200.630 154.036,202.087 155.494 C 203.039 156.445,204.957 156.658,206.109 155.939 C 206.621 155.618,207.092 155.618,208.160 155.939 C 210.526 156.648,216.043 155.676,216.742 154.428 C 216.904 154.138,217.192 153.900,217.381 153.900 C 217.569 153.900,218.705 153.144,219.905 152.220 C 223.838 149.189,227.189 148.380,227.464 150.394 C 227.753 152.513,229.858 153.107,232.428 151.797 C 233.184 151.411,234.208 151.096,234.703 151.096 C 235.199 151.096,236.546 150.778,237.697 150.391 C 238.848 150.003,240.618 149.511,241.630 149.296 C 242.642 149.082,243.865 148.708,244.347 148.465 C 244.829 148.222,245.933 147.911,246.801 147.773 C 247.669 147.635,248.707 147.315,249.109 147.061 C 249.511 146.806,250.610 146.483,251.551 146.342 C 252.493 146.201,253.900 145.796,254.677 145.443 C 255.455 145.090,256.454 144.797,256.898 144.793 C 257.342 144.789,258.288 144.483,259.002 144.113 C 260.170 143.508,262.226 142.937,266.744 141.964 C 267.590 141.782,268.750 141.400,269.322 141.115 C 269.894 140.830,271.331 140.423,272.516 140.211 C 273.702 140.000,275.021 139.601,275.448 139.326 C 275.875 139.051,276.670 138.826,277.214 138.826 C 277.759 138.826,278.781 138.532,279.485 138.172 C 280.190 137.813,281.446 137.411,282.276 137.278 C 283.107 137.146,284.105 136.829,284.495 136.573 C 284.885 136.318,285.870 135.997,286.684 135.860 C 287.498 135.722,288.237 135.493,288.325 135.351 C 288.674 134.785,293.075 132.881,296.056 132.006 C 297.791 131.496,300.000 130.780,300.964 130.414 C 301.928 130.047,303.333 129.638,304.087 129.505 C 304.840 129.371,305.865 129.048,306.365 128.787 C 306.865 128.526,307.442 128.312,307.647 128.311 C 307.851 128.309,308.672 127.993,309.470 127.607 C 310.268 127.222,311.284 126.903,311.727 126.899 C 312.170 126.894,313.224 126.577,314.068 126.194 C 314.912 125.811,316.253 125.398,317.048 125.277 C 317.842 125.155,318.966 124.816,319.544 124.523 C 320.123 124.231,321.974 123.864,323.658 123.708 C 325.342 123.552,327.216 123.168,327.823 122.854 C 328.430 122.540,329.968 122.135,331.240 121.955 C 332.511 121.775,333.705 121.475,333.892 121.287 C 334.080 121.100,334.568 120.947,334.978 120.947 C 335.388 120.947,336.852 120.552,338.232 120.070 C 339.612 119.588,341.020 119.188,341.361 119.182 C 341.702 119.175,342.612 118.865,343.383 118.493 C 344.154 118.120,345.169 117.810,345.639 117.803 C 346.108 117.797,347.133 117.497,347.917 117.136 C 348.701 116.776,349.816 116.318,350.394 116.118 C 351.384 115.776,352.008 115.621,356.349 114.632 C 357.311 114.413,358.259 114.100,358.456 113.936 C 358.653 113.773,359.906 113.386,361.241 113.076 C 362.575 112.767,363.836 112.378,364.042 112.212 C 364.248 112.047,365.127 111.798,365.995 111.660 C 366.862 111.522,368.046 111.200,368.624 110.945 C 369.202 110.690,370.188 110.379,370.815 110.252 C 371.442 110.126,371.954 109.890,371.954 109.728 C 371.954 109.565,372.546 109.242,373.269 109.009 C 373.992 108.776,374.741 108.467,374.934 108.323 C 375.127 108.180,376.310 107.884,377.564 107.667 C 378.817 107.450,380.316 107.129,380.894 106.953 C 382.436 106.484,382.559 106.503,383.588 107.364 " stroke="none" fill="#948484" fill-rule="evenodd"></path></g></svg>